<svg width="145" height="145" viewBox="0 0 145 145" fill="none" xmlns="http://www.w3.org/2000/svg">
<path d="M0 86.044H56.8315V139.158H0V86.044Z" fill="black"/>
<path d="M3.18681 145H53.1135V139.158H3.18681V145Z" fill="black"/>
<path d="M56.8315 91.8865H70.641V97.7289H56.8315V91.8865Z" fill="black"/>
<path d="M56.8315 124.817H70.641V130.659H56.8315V124.817Z" fill="black"/>
<path d="M70.641 130.659V91.8865H76.4835V130.659H70.641Z" fill="black"/>
<path d="M13.2784 64.2674H24.4322V75.4212H13.2784V64.2674Z" fill="black"/>
<path d="M27.619 0H38.7729V11.1538H27.619V0Z" fill="black"/>
<path d="M27.8736 50.7234L34.2582 44.3388L40.6429 50.7234L34.2582 57.1081L27.8736 50.7234Z" fill="black"/>
<path d="M45.6777 12.2272L52.0623 5.84249L58.447 12.2272L52.0623 18.6119L45.6777 12.2272Z" fill="black"/>
<path d="M54.043 48.7317L58.436 44.3388L62.8289 48.7317L58.436 53.1246L54.043 48.7317Z" fill="black"/>
<path d="M40.8974 28.1502H47.2711V34.5238H40.8974V28.1502Z" fill="black"/>
<path d="M46.2088 61.0806H49.9267V64.7985H46.2088V61.0806Z" fill="black"/>
<path d="M54.707 28.1502H58.4249V31.8681H54.707V28.1502Z" fill="black"/>
</svg>
