<?xml version="1.0" standalone="no"?>
<!DOCTYPE svg PUBLIC "-//W3C//DTD SVG 20010904//EN"
 "http://www.w3.org/TR/2001/REC-SVG-20010904/DTD/svg10.dtd">
<svg version="1.0" xmlns="http://www.w3.org/2000/svg"
 width="700.000000pt" height="700.000000pt" viewBox="0 0 700.000000 700.000000"
 preserveAspectRatio="xMidYMid meet">
<metadata>
Created by potrace 1.11, written by Peter Selinger 2001-2013
</metadata>
<g transform="translate(0.000000,700.000000) scale(0.100000,-0.100000)"
fill="#000000" stroke="none">
<path d="M3120 6730 l0 -270 268 3 267 2 2 268 3 267 -270 0 -270 0 0 -270z"/>
<path d="M4142 6561 l-150 -150 153 -154 154 -154 154 154 153 153 -149 150
c-83 83 -153 150 -157 150 -4 0 -75 -67 -158 -149z"/>
<path d="M3888 5642 l-128 -3 0 -153 0 -153 155 0 155 0 0 153 0 152 -27 3
c-16 2 -85 3 -155 1z"/>
<path d="M4473 5642 c-47 -3 -45 1 -45 -102 0 -88 -8 -81 90 -79 l88 1 1 88 2
88 -47 4 c-26 1 -66 2 -89 0z"/>
<path d="M4500 4755 l-104 -104 59 -63 c33 -35 81 -83 107 -106 l47 -44 105
105 105 104 -105 104 c-58 57 -106 105 -107 106 -1 1 -49 -45 -107 -102z"/>
<path d="M3279 4700 l-147 -148 151 -151 c83 -83 153 -151 156 -151 3 0 74 68
157 151 l152 152 -149 148 c-82 82 -154 149 -161 148 -7 0 -79 -67 -159 -149z"/>
<path d="M4019 4043 c-1 -11 -1 -145 0 -161 1 -10 23 -12 89 -10 l87 3 1 88 1
87 -88 0 c-49 0 -89 -3 -90 -7z"/>
<path d="M2429 3871 c0 -14 -1 -135 -2 -268 l-2 -243 88 -1 c110 0 186 0 335
0 l118 1 -1 268 0 267 -267 1 -268 1 -1 -26z"/>
<path d="M1788 2831 c-3 -14 -2 -2524 1 -2542 1 -4 20 -7 44 -7 23 0 57 -1 75
-1 l32 -1 0 -140 0 -140 1206 0 1205 0 -3 142 -3 143 93 -2 92 -1 0 204 0 204
43 1 c23 0 236 0 474 1 l431 0 -1 936 -2 937 -472 0 -473 0 0 140 0 141 -1369
0 c-1231 0 -1370 -1 -1373 -15z m3400 -556 c4 -4 7 -298 7 -654 l0 -646 -332
-1 -333 0 0 653 0 652 33 3 c63 6 618 0 625 -7z"/>
</g>
</svg>
