<svg width="589" height="165" viewBox="0 0 589 165" fill="none" xmlns="http://www.w3.org/2000/svg">
<path d="M0 86.044H56.8315V139.158H0V86.044Z" fill="black"/>
<path d="M3.18681 145H53.1135V139.158H3.18681V145Z" fill="black"/>
<path d="M56.8315 91.8865H70.641V97.7289H56.8315V91.8865Z" fill="black"/>
<path d="M56.8315 124.817H70.641V130.659H56.8315V124.817Z" fill="black"/>
<path d="M70.641 130.659V91.8865H76.4835V130.659H70.641Z" fill="black"/>
<path d="M13.2784 64.2674H24.4322V75.4212H13.2784V64.2674Z" fill="black"/>
<path d="M27.619 0H38.7729V11.1538H27.619V0Z" fill="black"/>
<path d="M27.8736 50.7234L34.2582 44.3388L40.6429 50.7234L34.2582 57.1081L27.8736 50.7234Z" fill="black"/>
<path d="M45.6777 12.2272L52.0623 5.84249L58.447 12.2272L52.0623 18.6119L45.6777 12.2272Z" fill="black"/>
<path d="M54.043 48.7317L58.436 44.3388L62.8289 48.7317L58.436 53.1246L54.043 48.7317Z" fill="black"/>
<path d="M40.8974 28.1502H47.2711V34.5238H40.8974V28.1502Z" fill="black"/>
<path d="M46.2088 61.0806H49.9267V64.7985H46.2088V61.0806Z" fill="black"/>
<path d="M54.707 28.1502H58.4249V31.8681H54.707V28.1502Z" fill="black"/>
<rect x="293" y="71" width="296" height="94" fill="black"/>
<path d="M120.904 99.64C119.224 99.64 118.048 99.304 117.376 98.632C116.704 97.912 116.368 97.024 116.368 95.968V94.816C116.368 93.76 116.704 92.896 117.376 92.224C118.048 91.504 119.224 91.144 120.904 91.144C122.584 91.144 123.76 91.504 124.432 92.224C125.104 92.896 125.44 93.76 125.44 94.816V95.968C125.44 97.024 125.104 97.912 124.432 98.632C123.76 99.304 122.584 99.64 120.904 99.64ZM104.632 140.104H118.024V112.744H104.632V107.848H123.784V140.104H136.312V145H104.632V140.104ZM158.1 145L144.78 107.848H150.612L155.94 123.4L161.7 140.176H161.988L167.748 123.4L173.076 107.848H178.764L165.444 145H158.1ZM218.984 145C216.728 145 215.12 144.424 214.16 143.272C213.2 142.12 212.6 140.68 212.36 138.952H212C211.184 141.112 209.864 142.816 208.04 144.064C206.264 145.264 203.864 145.864 200.84 145.864C196.952 145.864 193.856 144.856 191.552 142.84C189.248 140.824 188.096 138.064 188.096 134.56C188.096 131.104 189.344 128.44 191.84 126.568C194.384 124.696 198.464 123.76 204.08 123.76H212V120.088C212 117.352 211.232 115.312 209.696 113.968C208.16 112.576 205.976 111.88 203.144 111.88C200.648 111.88 198.608 112.384 197.024 113.392C195.44 114.352 194.168 115.672 193.208 117.352L189.32 114.472C189.8 113.512 190.448 112.576 191.264 111.664C192.08 110.752 193.088 109.96 194.288 109.288C195.488 108.568 196.856 108.016 198.392 107.632C199.928 107.2 201.632 106.984 203.504 106.984C207.872 106.984 211.328 108.088 213.872 110.296C216.464 112.504 217.76 115.576 217.76 119.512V139.96H222.944V145H218.984ZM201.848 141.04C203.336 141.04 204.68 140.872 205.88 140.536C207.128 140.152 208.208 139.672 209.12 139.096C210.032 138.472 210.728 137.752 211.208 136.936C211.736 136.072 212 135.16 212 134.2V128.08H204.08C200.624 128.08 198.104 128.56 196.52 129.52C194.936 130.48 194.144 131.872 194.144 133.696V135.208C194.144 137.128 194.816 138.592 196.16 139.6C197.552 140.56 199.448 141.04 201.848 141.04ZM233.572 145V107.848H239.332V113.896H239.62C240.004 112.984 240.484 112.12 241.06 111.304C241.636 110.44 242.332 109.696 243.148 109.072C244.012 108.448 245.02 107.944 246.172 107.56C247.324 107.176 248.668 106.984 250.204 106.984C254.092 106.984 257.212 108.232 259.564 110.728C261.916 113.176 263.092 116.656 263.092 121.168V145H257.332V122.176C257.332 118.768 256.588 116.248 255.1 114.616C253.612 112.936 251.428 112.096 248.548 112.096C247.396 112.096 246.268 112.24 245.164 112.528C244.06 112.816 243.076 113.248 242.212 113.824C241.348 114.4 240.652 115.144 240.124 116.056C239.596 116.968 239.332 118.024 239.332 119.224V145H233.572Z" fill="black"/>
<path d="M318.619 140.104H331.579V96.616H318.619V91.72H337.339V140.104H350.299V145H318.619V140.104ZM386.415 138.952H386.127C385.743 139.864 385.263 140.752 384.687 141.616C384.111 142.432 383.391 143.152 382.527 143.776C381.711 144.4 380.727 144.904 379.575 145.288C378.423 145.672 377.079 145.864 375.543 145.864C371.655 145.864 368.535 144.64 366.183 142.192C363.831 139.696 362.655 136.192 362.655 131.68V107.848H368.415V130.672C368.415 134.08 369.159 136.624 370.647 138.304C372.135 139.936 374.319 140.752 377.199 140.752C378.351 140.752 379.479 140.608 380.583 140.32C381.687 140.032 382.671 139.6 383.535 139.024C384.399 138.448 385.095 137.728 385.623 136.864C386.151 135.952 386.415 134.872 386.415 133.624V107.848H392.175V145H386.415V138.952ZM429.803 138.952H429.515C427.115 143.56 423.299 145.864 418.067 145.864C413.507 145.864 409.931 144.16 407.339 140.752C404.795 137.344 403.523 132.568 403.523 126.424C403.523 120.28 404.795 115.504 407.339 112.096C409.931 108.688 413.507 106.984 418.067 106.984C423.299 106.984 427.115 109.288 429.515 113.896H429.803V91.72H435.563V145H429.803V138.952ZM420.299 140.752C421.595 140.752 422.819 140.584 423.971 140.248C425.123 139.912 426.131 139.432 426.995 138.808C427.859 138.136 428.531 137.344 429.011 136.432C429.539 135.472 429.803 134.368 429.803 133.12V119.728C429.803 118.48 429.539 117.4 429.011 116.488C428.531 115.528 427.859 114.736 426.995 114.112C426.131 113.44 425.123 112.936 423.971 112.6C422.819 112.264 421.595 112.096 420.299 112.096C416.939 112.096 414.323 113.128 412.451 115.192C410.627 117.208 409.715 119.896 409.715 123.256V129.592C409.715 132.952 410.627 135.664 412.451 137.728C414.323 139.744 416.939 140.752 420.299 140.752ZM460.303 145L446.983 107.848H452.815L458.143 123.4L463.903 140.176H464.191L469.951 123.4L475.279 107.848H480.967L467.647 145H460.303ZM509.451 99.64C507.771 99.64 506.595 99.304 505.923 98.632C505.251 97.912 504.915 97.024 504.915 95.968V94.816C504.915 93.76 505.251 92.896 505.923 92.224C506.595 91.504 507.771 91.144 509.451 91.144C511.131 91.144 512.307 91.504 512.979 92.224C513.651 92.896 513.987 93.76 513.987 94.816V95.968C513.987 97.024 513.651 97.912 512.979 98.632C512.307 99.304 511.131 99.64 509.451 99.64ZM493.179 140.104H506.571V112.744H493.179V107.848H512.331V140.104H524.859V145H493.179V140.104ZM569.111 149.248C569.111 152.992 567.551 155.752 564.431 157.528C561.311 159.352 556.631 160.264 550.391 160.264C544.391 160.264 540.071 159.472 537.431 157.888C534.839 156.304 533.543 154.024 533.543 151.048C533.543 149.032 534.071 147.472 535.127 146.368C536.183 145.264 537.671 144.448 539.591 143.92V143.056C538.535 142.528 537.719 141.856 537.143 141.04C536.567 140.224 536.279 139.192 536.279 137.944C536.279 136.024 536.903 134.584 538.151 133.624C539.447 132.664 541.055 131.944 542.975 131.464V131.176C540.671 130.168 538.871 128.68 537.575 126.712C536.327 124.744 535.703 122.44 535.703 119.8C535.703 117.928 536.039 116.2 536.711 114.616C537.383 113.032 538.343 111.688 539.591 110.584C540.887 109.432 542.423 108.544 544.199 107.92C545.975 107.296 547.943 106.984 550.103 106.984C552.887 106.984 555.335 107.488 557.447 108.496V107.848C557.447 106.408 557.783 105.208 558.455 104.248C559.127 103.288 560.279 102.808 561.911 102.808H568.751V107.848H560.399V110.368C561.743 111.52 562.775 112.888 563.495 114.472C564.215 116.056 564.575 117.832 564.575 119.8C564.575 121.672 564.215 123.4 563.495 124.984C562.823 126.568 561.863 127.936 560.615 129.088C559.367 130.192 557.831 131.056 556.007 131.68C554.231 132.304 552.263 132.616 550.103 132.616C549.479 132.616 548.879 132.592 548.303 132.544C547.727 132.496 547.151 132.424 546.575 132.328C545.999 132.424 545.399 132.592 544.775 132.832C544.151 133.024 543.575 133.312 543.047 133.696C542.519 134.032 542.087 134.44 541.751 134.92C541.415 135.4 541.247 135.952 541.247 136.576C541.247 137.68 541.799 138.424 542.903 138.808C544.007 139.144 545.447 139.312 547.223 139.312H555.431C560.231 139.312 563.711 140.224 565.871 142.048C568.031 143.824 569.111 146.224 569.111 149.248ZM563.711 149.536C563.711 148.048 563.111 146.848 561.911 145.936C560.711 145.072 558.623 144.64 555.647 144.64H542.759C540.263 145.648 539.015 147.328 539.015 149.68C539.015 151.312 539.663 152.704 540.959 153.856C542.255 155.056 544.415 155.656 547.439 155.656H553.055C556.415 155.656 559.031 155.128 560.903 154.072C562.775 153.064 563.711 151.552 563.711 149.536ZM550.103 128.152C552.983 128.152 555.095 127.48 556.439 126.136C557.831 124.792 558.527 123.016 558.527 120.808V118.72C558.527 116.512 557.831 114.76 556.439 113.464C555.095 112.12 552.983 111.448 550.103 111.448C547.223 111.448 545.111 112.12 543.767 113.464C542.423 114.76 541.751 116.512 541.751 118.72V120.808C541.751 123.016 542.423 124.792 543.767 126.136C545.111 127.48 547.223 128.152 550.103 128.152Z" fill="white"/>
</svg>
