<svg width="581" height="165" viewBox="0 0 581 165" fill="none" xmlns="http://www.w3.org/2000/svg">
<path d="M129.904 99.64C128.224 99.64 127.048 99.304 126.376 98.632C125.704 97.912 125.368 97.024 125.368 95.968V94.816C125.368 93.76 125.704 92.896 126.376 92.224C127.048 91.504 128.224 91.144 129.904 91.144C131.584 91.144 132.76 91.504 133.432 92.224C134.104 92.896 134.44 93.76 134.44 94.816V95.968C134.44 97.024 134.104 97.912 133.432 98.632C132.76 99.304 131.584 99.64 129.904 99.64ZM113.632 140.104H127.024V112.744H113.632V107.848H132.784V140.104H145.312V145H113.632V140.104ZM167.1 145L153.78 107.848H159.612L164.94 123.4L170.7 140.176H170.988L176.748 123.4L182.076 107.848H187.764L174.444 145H167.1ZM227.984 145C225.728 145 224.12 144.424 223.16 143.272C222.2 142.12 221.6 140.68 221.36 138.952H221C220.184 141.112 218.864 142.816 217.04 144.064C215.264 145.264 212.864 145.864 209.84 145.864C205.952 145.864 202.856 144.856 200.552 142.84C198.248 140.824 197.096 138.064 197.096 134.56C197.096 131.104 198.344 128.44 200.84 126.568C203.384 124.696 207.464 123.76 213.08 123.76H221V120.088C221 117.352 220.232 115.312 218.696 113.968C217.16 112.576 214.976 111.88 212.144 111.88C209.648 111.88 207.608 112.384 206.024 113.392C204.44 114.352 203.168 115.672 202.208 117.352L198.32 114.472C198.8 113.512 199.448 112.576 200.264 111.664C201.08 110.752 202.088 109.96 203.288 109.288C204.488 108.568 205.856 108.016 207.392 107.632C208.928 107.2 210.632 106.984 212.504 106.984C216.872 106.984 220.328 108.088 222.872 110.296C225.464 112.504 226.76 115.576 226.76 119.512V139.96H231.944V145H227.984ZM210.848 141.04C212.336 141.04 213.68 140.872 214.88 140.536C216.128 140.152 217.208 139.672 218.12 139.096C219.032 138.472 219.728 137.752 220.208 136.936C220.736 136.072 221 135.16 221 134.2V128.08H213.08C209.624 128.08 207.104 128.56 205.52 129.52C203.936 130.48 203.144 131.872 203.144 133.696V135.208C203.144 137.128 203.816 138.592 205.16 139.6C206.552 140.56 208.448 141.04 210.848 141.04ZM242.572 145V107.848H248.332V113.896H248.62C249.004 112.984 249.484 112.12 250.06 111.304C250.636 110.44 251.332 109.696 252.148 109.072C253.012 108.448 254.02 107.944 255.172 107.56C256.324 107.176 257.668 106.984 259.204 106.984C263.092 106.984 266.212 108.232 268.564 110.728C270.916 113.176 272.092 116.656 272.092 121.168V145H266.332V122.176C266.332 118.768 265.588 116.248 264.1 114.616C262.612 112.936 260.428 112.096 257.548 112.096C256.396 112.096 255.268 112.24 254.164 112.528C253.06 112.816 252.076 113.248 251.212 113.824C250.348 114.4 249.652 115.144 249.124 116.056C248.596 116.968 248.332 118.024 248.332 119.224V145H242.572ZM283.008 157.168V151.84H317.568V157.168H283.008ZM327.619 140.104H340.579V96.616H327.619V91.72H346.339V140.104H359.299V145H327.619V140.104ZM395.415 138.952H395.127C394.743 139.864 394.263 140.752 393.687 141.616C393.111 142.432 392.391 143.152 391.527 143.776C390.711 144.4 389.727 144.904 388.575 145.288C387.423 145.672 386.079 145.864 384.543 145.864C380.655 145.864 377.535 144.64 375.183 142.192C372.831 139.696 371.655 136.192 371.655 131.68V107.848H377.415V130.672C377.415 134.08 378.159 136.624 379.647 138.304C381.135 139.936 383.319 140.752 386.199 140.752C387.351 140.752 388.479 140.608 389.583 140.32C390.687 140.032 391.671 139.6 392.535 139.024C393.399 138.448 394.095 137.728 394.623 136.864C395.151 135.952 395.415 134.872 395.415 133.624V107.848H401.175V145H395.415V138.952ZM438.803 138.952H438.515C436.115 143.56 432.299 145.864 427.067 145.864C422.507 145.864 418.931 144.16 416.339 140.752C413.795 137.344 412.523 132.568 412.523 126.424C412.523 120.28 413.795 115.504 416.339 112.096C418.931 108.688 422.507 106.984 427.067 106.984C432.299 106.984 436.115 109.288 438.515 113.896H438.803V91.72H444.563V145H438.803V138.952ZM429.299 140.752C430.595 140.752 431.819 140.584 432.971 140.248C434.123 139.912 435.131 139.432 435.995 138.808C436.859 138.136 437.531 137.344 438.011 136.432C438.539 135.472 438.803 134.368 438.803 133.12V119.728C438.803 118.48 438.539 117.4 438.011 116.488C437.531 115.528 436.859 114.736 435.995 114.112C435.131 113.44 434.123 112.936 432.971 112.6C431.819 112.264 430.595 112.096 429.299 112.096C425.939 112.096 423.323 113.128 421.451 115.192C419.627 117.208 418.715 119.896 418.715 123.256V129.592C418.715 132.952 419.627 135.664 421.451 137.728C423.323 139.744 425.939 140.752 429.299 140.752ZM469.303 145L455.983 107.848H461.815L467.143 123.4L472.903 140.176H473.191L478.951 123.4L484.279 107.848H489.967L476.647 145H469.303ZM518.451 99.64C516.771 99.64 515.595 99.304 514.923 98.632C514.251 97.912 513.915 97.024 513.915 95.968V94.816C513.915 93.76 514.251 92.896 514.923 92.224C515.595 91.504 516.771 91.144 518.451 91.144C520.131 91.144 521.307 91.504 521.979 92.224C522.651 92.896 522.987 93.76 522.987 94.816V95.968C522.987 97.024 522.651 97.912 521.979 98.632C521.307 99.304 520.131 99.64 518.451 99.64ZM502.179 140.104H515.571V112.744H502.179V107.848H521.331V140.104H533.859V145H502.179V140.104ZM578.111 149.248C578.111 152.992 576.551 155.752 573.431 157.528C570.311 159.352 565.631 160.264 559.391 160.264C553.391 160.264 549.071 159.472 546.431 157.888C543.839 156.304 542.543 154.024 542.543 151.048C542.543 149.032 543.071 147.472 544.127 146.368C545.183 145.264 546.671 144.448 548.591 143.92V143.056C547.535 142.528 546.719 141.856 546.143 141.04C545.567 140.224 545.279 139.192 545.279 137.944C545.279 136.024 545.903 134.584 547.151 133.624C548.447 132.664 550.055 131.944 551.975 131.464V131.176C549.671 130.168 547.871 128.68 546.575 126.712C545.327 124.744 544.703 122.44 544.703 119.8C544.703 117.928 545.039 116.2 545.711 114.616C546.383 113.032 547.343 111.688 548.591 110.584C549.887 109.432 551.423 108.544 553.199 107.92C554.975 107.296 556.943 106.984 559.103 106.984C561.887 106.984 564.335 107.488 566.447 108.496V107.848C566.447 106.408 566.783 105.208 567.455 104.248C568.127 103.288 569.279 102.808 570.911 102.808H577.751V107.848H569.399V110.368C570.743 111.52 571.775 112.888 572.495 114.472C573.215 116.056 573.575 117.832 573.575 119.8C573.575 121.672 573.215 123.4 572.495 124.984C571.823 126.568 570.863 127.936 569.615 129.088C568.367 130.192 566.831 131.056 565.007 131.68C563.231 132.304 561.263 132.616 559.103 132.616C558.479 132.616 557.879 132.592 557.303 132.544C556.727 132.496 556.151 132.424 555.575 132.328C554.999 132.424 554.399 132.592 553.775 132.832C553.151 133.024 552.575 133.312 552.047 133.696C551.519 134.032 551.087 134.44 550.751 134.92C550.415 135.4 550.247 135.952 550.247 136.576C550.247 137.68 550.799 138.424 551.903 138.808C553.007 139.144 554.447 139.312 556.223 139.312H564.431C569.231 139.312 572.711 140.224 574.871 142.048C577.031 143.824 578.111 146.224 578.111 149.248ZM572.711 149.536C572.711 148.048 572.111 146.848 570.911 145.936C569.711 145.072 567.623 144.64 564.647 144.64H551.759C549.263 145.648 548.015 147.328 548.015 149.68C548.015 151.312 548.663 152.704 549.959 153.856C551.255 155.056 553.415 155.656 556.439 155.656H562.055C565.415 155.656 568.031 155.128 569.903 154.072C571.775 153.064 572.711 151.552 572.711 149.536ZM559.103 128.152C561.983 128.152 564.095 127.48 565.439 126.136C566.831 124.792 567.527 123.016 567.527 120.808V118.72C567.527 116.512 566.831 114.76 565.439 113.464C564.095 112.12 561.983 111.448 559.103 111.448C556.223 111.448 554.111 112.12 552.767 113.464C551.423 114.76 550.751 116.512 550.751 118.72V120.808C550.751 123.016 551.423 124.792 552.767 126.136C554.111 127.48 556.223 128.152 559.103 128.152Z" fill="black"/>
<path d="M0 86.044H56.8315V139.158H0V86.044Z" fill="black"/>
<path d="M3.18681 145H53.1135V139.158H3.18681V145Z" fill="black"/>
<path d="M56.8315 91.8865H70.641V97.7289H56.8315V91.8865Z" fill="black"/>
<path d="M56.8315 124.817H70.641V130.659H56.8315V124.817Z" fill="black"/>
<path d="M70.641 130.659V91.8865H76.4835V130.659H70.641Z" fill="black"/>
<path d="M13.2784 64.2674H24.4322V75.4212H13.2784V64.2674Z" fill="black"/>
<path d="M27.619 0H38.7729V11.1538H27.619V0Z" fill="black"/>
<path d="M27.8736 50.7234L34.2582 44.3388L40.6429 50.7234L34.2582 57.1081L27.8736 50.7234Z" fill="black"/>
<path d="M45.6777 12.2272L52.0623 5.84249L58.447 12.2272L52.0623 18.6119L45.6777 12.2272Z" fill="black"/>
<path d="M54.043 48.7317L58.436 44.3388L62.8289 48.7317L58.436 53.1246L54.043 48.7317Z" fill="black"/>
<path d="M40.8974 28.1502H47.2711V34.5238H40.8974V28.1502Z" fill="black"/>
<path d="M46.2088 61.0806H49.9267V64.7985H46.2088V61.0806Z" fill="black"/>
<path d="M54.707 28.1502H58.4249V31.8681H54.707V28.1502Z" fill="black"/>
</svg>
