<?xml version="1.0" encoding="UTF-8" standalone="no"?>
<!-- Creator: CorelDRAW -->
<svg xmlns:dc="http://purl.org/dc/elements/1.1/" xmlns:cc="http://creativecommons.org/ns#" xmlns:rdf="http://www.w3.org/1999/02/22-rdf-syntax-ns#" xmlns:svg="http://www.w3.org/2000/svg" xmlns="http://www.w3.org/2000/svg" xmlns:sodipodi="http://sodipodi.sourceforge.net/DTD/sodipodi-0.dtd" xmlns:inkscape="http://www.inkscape.org/namespaces/inkscape" xml:space="preserve" width="120mm" height="80mm" style="shape-rendering:geometricPrecision; text-rendering:geometricPrecision; image-rendering:optimizeQuality; fill-rule:evenodd" viewBox="0 0 120000 80000" id="svg3392" version="1.1" inkscape:version="0.48.3.1 r9886" sodipodi:docname="Activitytotal1.svg"><metadata id="metadata3759"><rdf:RDF><cc:Work rdf:about=""><dc:format>image/svg+xml</dc:format><dc:type rdf:resource="http://purl.org/dc/dcmitype/StillImage"/></cc:Work></rdf:RDF></metadata><sodipodi:namedview pagecolor="#ffffff" bordercolor="#666666" borderopacity="1" objecttolerance="10" gridtolerance="10" guidetolerance="10" inkscape:pageopacity="0" inkscape:pageshadow="2" inkscape:window-width="1147" inkscape:window-height="864" id="namedview3757" showgrid="false" inkscape:zoom="2.2718889" inkscape:cx="212.59842" inkscape:cy="141.73228" inkscape:window-x="0" inkscape:window-y="0" inkscape:window-maximized="0" inkscape:current-layer="Ebene_x0020_1"/>
 <defs id="defs3394">
  <style type="text/css" id="style3396">
   
    .str3 {stroke:#1F1A17;stroke-width:176.4}
    .str1 {stroke:#00923F;stroke-width:352.8}
    .str2 {stroke:#28166F;stroke-width:352.8}
    .str4 {stroke:#7367A3;stroke-width:352.8}
    .str5 {stroke:#87C9A7;stroke-width:352.8}
    .str0 {stroke:#DA251D;stroke-width:352.8}
    .fil0 {fill:none}
    .fil1 {fill:#1F1A17}
   
  </style>
 </defs>
 <g id="Ebene_x0020_1">
  <path class="fil0 str0" d="M13701.2 19261.9c4051.8,590.5 6420.6,5548.6 10293,6784.4 5168.5,1649.3 10836,538.9 16130.5,1723.2 4242.6,948.9 7955.1,3562.9 12109.5,4843.8 3328.5,1026.2 6971.4,864.1 10246.5,2049.3 3318,1200.8 6796.1,4448 9601.4,4672.1 3331.4,266.1 12424.6,197.5 18486.8,2264.1 4998,1703.9 8823,2521.6 13270.4,7595.2" id="path3399"/>
  <path class="fil0 str1" d="M13637 23843.6c7995.3,316.1 16569.7,1144.3 24568,1646.8 5567.2,349.8 9632.1,3841 14668.8,6515.6 2991,1588.3 6645.5,1440 9809.2,2649.2 3050.7,1166.1 5603.3,3512.4 8735.2,4439.2 3977.6,1177 8266.7,886.6 12315.1,1790 3604.7,804.3 5816.3,3664.9 9200.5,5065.6 3319.3,1373.9 7570.3,566.4 10919.2,1664.8" id="path3401"/>
  <path class="fil0 str2" d="M13570.2 19126.8c3724.8,1590.8 7192.5,4032.1 11174.4,4772.4 5161.5,959.7 10609.7,455.9 15830.4,1629.6 4455.5,1001.6 7910.6,4047.4 11756.3,6052.8 2728.5,1422.8 6070.5,1161.4 8962.9,2211.6 3655.2,1327.1 6813.2,3972.8 10592.4,4888.8 4041,979.6 8356.5,-4.1 12454.8,698.4 4102.6,703.3 8091.8,2030.5 11989.2,3492 2648.3,993.1 5044,2560.8 7566,3841.2" id="path3403"/>
  <g id="g3405">
   <path class="fil1" d="M13686.6 11795l460.9 921.7 -921.8 0 460.9 -921.7 0 -1.4z" id="path3407"/>
   <path class="fil1" d="M13686.6 67492.8l176.4 -176.4 0 -54611.8 -352.8 0 0 54611.8 176.4 176.4 -176.4 -176.4 0 176.4 176.4 0z" id="path3409"/>
   <path class="fil1" d="M102986 67140l-89299 0 0 352.8 89299 0z" id="path3411"/>
   <path class="fil1" d="M103895 67316.4l-921.7 -460.9 0 921.8 921.7 -460.9 1.4 0z" id="path3413"/>
  </g>
  <g id="g3415">
   <path class="fil0 str3" d="M31230.8 67315.9l0 -657.6" id="path3417"/>
   <path class="fil0 str3" d="M33599.8 67315.9l0 -657.6" id="path3419"/>
   <path class="fil0 str3" d="M33599.8 67315.9l0 -657.6" id="path3421"/>
   <path class="fil0 str3" d="M34961.3 67315.9l0 -657.6" id="path3423"/>
   <path class="fil0 str3" d="M36095.8 67315.9l0 -657.6" id="path3425"/>
   <path class="fil0 str3" d="M37257.2 67315.9l0 -657.6" id="path3427"/>
   <path class="fil0 str3" d="M38064.8 67315.9l0 -657.6" id="path3429"/>
   <path class="fil0 str3" d="M39499.5 67315.9l0 -1080.1" id="path3431"/>
   <path class="fil0 str3" d="M38864.8 67315.9l0 -657.6" id="path3433"/>
   <path class="fil0 str3" d="M27700.3 67315.9l0 -657.6" id="path3435"/>
  </g>
  <g id="g3437">
   <path class="fil0 str3" d="M13665.4 61751.7l657.6 0" id="path3439"/>
   <path class="fil0 str3" d="M13665.4 60129.8l657.6 0" id="path3441"/>
   <path class="fil0 str3" d="M13665.4 59041.5l657.6 0" id="path3443"/>
   <path class="fil0 str3" d="M13665.4 59041.5l657.6 0" id="path3445"/>
   <path class="fil0 str3" d="M13665.4 58416l657.6 0" id="path3447"/>
   <path class="fil0 str3" d="M13665.4 57894.8l657.6 0" id="path3449"/>
   <path class="fil0 str3" d="M13665.4 57361.2l657.6 0" id="path3451"/>
   <path class="fil0 str3" d="M13665.4 56990.2l657.6 0" id="path3453"/>
   <path class="fil0 str3" d="M13665.4 56331.2l1080.1 0" id="path3455"/>
   <path class="fil0 str3" d="M13665.4 56622.7l657.6 0" id="path3457"/>
  </g>
  <g id="g3459">
   <path class="fil0 str3" d="M13665.4 50351.6l657.6 0" id="path3461"/>
   <path class="fil0 str3" d="M13665.4 48729.8l657.6 0" id="path3463"/>
   <path class="fil0 str3" d="M13665.4 47641.5l657.6 0" id="path3465"/>
   <path class="fil0 str3" d="M13665.4 47641.5l657.6 0" id="path3467"/>
   <path class="fil0 str3" d="M13665.4 47016l657.6 0" id="path3469"/>
   <path class="fil0 str3" d="M13665.4 46494.8l657.6 0" id="path3471"/>
   <path class="fil0 str3" d="M13665.4 45961.2l657.6 0" id="path3473"/>
   <path class="fil0 str3" d="M13665.4 45590.2l657.6 0" id="path3475"/>
   <path class="fil0 str3" d="M13665.4 44931.1l1080.1 0" id="path3477"/>
   <path class="fil0 str3" d="M13665.4 45222.7l657.6 0" id="path3479"/>
  </g>
  <g id="g3481">
   <path class="fil0 str3" d="M13665.4 39116.8l657.6 0" id="path3483"/>
   <path class="fil0 str3" d="M13665.4 37595.1l657.6 0" id="path3485"/>
   <path class="fil0 str3" d="M13665.4 36574l657.6 0" id="path3487"/>
   <path class="fil0 str3" d="M13665.4 36574l657.6 0" id="path3489"/>
   <path class="fil0 str3" d="M13665.4 35987.2l657.6 0" id="path3491"/>
   <path class="fil0 str3" d="M13665.4 35498.2l657.6 0" id="path3493"/>
   <path class="fil0 str3" d="M13665.4 34997.6l657.6 0" id="path3495"/>
   <path class="fil0 str3" d="M13665.4 34649.5l657.6 0" id="path3497"/>
   <path class="fil0 str3" d="M13665.4 34031.2l1080.1 0" id="path3499"/>
   <path class="fil0 str3" d="M13665.4 34304.8l657.6 0" id="path3501"/>
  </g>
  <g id="g3503">
   <path class="fil0 str3" d="M13665.4 28016.8l657.6 0" id="path3505"/>
   <path class="fil0 str3" d="M13665.4 26495.1l657.6 0" id="path3507"/>
   <path class="fil0 str3" d="M13665.4 25474l657.6 0" id="path3509"/>
   <path class="fil0 str3" d="M13665.4 25474l657.6 0" id="path3511"/>
   <path class="fil0 str3" d="M13665.4 24887.2l657.6 0" id="path3513"/>
   <path class="fil0 str3" d="M13665.4 24398.2l657.6 0" id="path3515"/>
   <path class="fil0 str3" d="M13665.4 23897.6l657.6 0" id="path3517"/>
   <path class="fil0 str3" d="M13665.4 23549.5l657.6 0" id="path3519"/>
   <path class="fil0 str3" d="M13665.4 22931.2l1080.1 0" id="path3521"/>
   <path class="fil0 str3" d="M13665.4 23204.7l657.6 0" id="path3523"/>
  </g>
  <g id="g3525">
   <path class="fil0 str3" d="M13765.4 17016.8l657.6 0" id="path3527"/>
   <path class="fil0 str3" d="M13765.4 15495.2l657.6 0" id="path3529"/>
   <path class="fil0 str3" d="M13765.4 14474l657.6 0" id="path3531"/>
   <path class="fil0 str3" d="M13765.4 14474l657.6 0" id="path3533"/>
   <path class="fil0 str3" d="M13765.4 13887.2l657.6 0" id="path3535"/>
   <path class="fil0 str3" d="M13765.4 13398.2l657.6 0" id="path3537"/>
   <path class="fil0 str3" d="M13765.4 12897.6l657.6 0" id="path3539"/>
   <path class="fil0 str3" d="M13765.4 12549.6l657.6 0" id="path3541"/>
   <path class="fil0 str3" d="M13765.4 11931.2l1080.1 0" id="path3543"/>
   <path class="fil0 str3" d="M13765.4 12204.7l657.6 0" id="path3545"/>
  </g>
  <g id="g3547">
   <path class="fil0 str3" d="M56930.8 67315.9l0 -657.6" id="path3549"/>
   <path class="fil0 str3" d="M59299.8 67315.9l0 -657.6" id="path3551"/>
   <path class="fil0 str3" d="M59299.8 67315.9l0 -657.6" id="path3553"/>
   <path class="fil0 str3" d="M60661.3 67315.9l0 -657.6" id="path3555"/>
   <path class="fil0 str3" d="M61795.8 67315.9l0 -657.6" id="path3557"/>
   <path class="fil0 str3" d="M62957.2 67315.9l0 -657.6" id="path3559"/>
   <path class="fil0 str3" d="M63764.8 67315.9l0 -657.6" id="path3561"/>
   <path class="fil0 str3" d="M65199.4 67315.9l0 -1080.1" id="path3563"/>
   <path class="fil0 str3" d="M64564.8 67315.9l0 -657.6" id="path3565"/>
   <path class="fil0 str3" d="M53400.3 67315.9l0 -657.6" id="path3567"/>
  </g>
  <g id="g3569">
   <path class="fil0 str3" d="M82730.8 67315.9l0 -657.6" id="path3571"/>
   <path class="fil0 str3" d="M85099.8 67315.9l0 -657.6" id="path3573"/>
   <path class="fil0 str3" d="M85099.8 67315.9l0 -657.6" id="path3575"/>
   <path class="fil0 str3" d="M86461.3 67315.9l0 -657.6" id="path3577"/>
   <path class="fil0 str3" d="M87595.8 67315.9l0 -657.6" id="path3579"/>
   <path class="fil0 str3" d="M88757.2 67315.9l0 -657.6" id="path3581"/>
   <path class="fil0 str3" d="M89564.8 67315.9l0 -657.6" id="path3583"/>
   <path class="fil0 str3" d="M90999.4 67315.9l0 -1080.1" id="path3585"/>
   <path class="fil0 str3" d="M90364.8 67315.9l0 -657.6" id="path3587"/>
   <path class="fil0 str3" d="M79200.3 67315.9l0 -657.6" id="path3589"/>
  </g>
  <path class="fil0 str4" d="M21611.1 40274l6982.4 0" id="path3591"/>
  <path class="fil0 str5" d="M21611.1 48474l6982.4 0" id="path3593"/>
  <path class="fil0 str0" d="M21611.1 56874l6982.4 0" id="path3595"/>
  <path class="fil1" d="M31213.1 41100.3l0 -1515.1 644.1 0c161.9,0 279.4,13.7 352.8,40.9 73.4,27.2 132.3,75.5 176.4,145 44.1,69.8 65.9,149.2 65.9,238.8 0,113.6 -33.5,207.8 -100.2,281.9 -66.6,73.7 -166.8,120.6 -299.8,139.7 66.3,38.8 121,81.1 164,127.3 43.1,46.2 100.9,128.1 173.9,245.9l185.2 295.6 -365.8 0 -221.2 -329.8c-78.6,-117.9 -132.2,-191.9 -161.2,-222.6 -28.9,-30.7 -59.6,-51.5 -92,-63.2 -32.5,-11.3 -83.6,-16.9 -154.2,-16.9l-61.7 0 0 632.5 -306.2 0zm306.2 -874.5l226.1 0c146.7,0 238.5,-6 275.1,-18.4 36.4,-12.3 65,-33.8 85.8,-64.2 20.4,-30.3 31,-68 31,-113.5 0,-51.2 -13.7,-92.1 -40.9,-123.5 -27.2,-31.4 -65.6,-51.2 -115.4,-59.6 -24.7,-3.2 -99.1,-5 -223.3,-5l-238.4 0 0 384.2z" id="path3597"/>
  <path class="fil1" d="M33445.7 40543.3l0 -255.4 659.3 0 0 603.6c-64.2,62 -157,116.7 -278.7,164 -121.7,46.9 -244.8,70.6 -369.3,70.6 -158.4,0 -296.7,-33.2 -414.5,-99.5 -117.8,-66.7 -206.4,-161.6 -265.7,-285.4 -59.2,-123.8 -88.9,-258.2 -88.9,-403.6 0,-157.7 33.2,-298.1 99.2,-420.8 66.3,-122.4 162.9,-216.6 290.7,-281.9 97,-50.4 218,-75.5 362.6,-75.5 188,0 335.1,39.5 440.6,118.2 105.8,79 173.9,188 204.3,327.4l-303.8 56.8c-21.5,-74.5 -61.7,-133.4 -120.6,-176.4 -58.9,-43.1 -132.3,-64.6 -220.5,-64.6 -133.7,0 -239.9,42.3 -318.9,127 -79,85 -118.2,210.6 -118.2,377.5 0,179.5 39.9,314.6 120,404.6 79.7,90 184.5,134.8 313.9,134.8 64.2,0 128.4,-12.7 193,-37.8 64.2,-25 119.6,-55.7 165.8,-91.4l0 -192.2 -350.3 0z" id="path3599"/>
  <path class="fil1" d="M34387.3 41100.3l0 -1515.1 490.7 0c185.9,0 307.2,7.7 363.7,22.9 86.7,22.6 159.8,72 218.3,148.2 58.6,76.2 87.9,174.6 87.9,294.9 0,93.1 -17,171.4 -50.8,234.6 -33.9,63.5 -76.6,113.2 -128.8,149.5 -51.9,36 -104.8,60 -158.4,71.6 -73,14.5 -178.8,21.9 -317.5,21.9l-199.3 0 0 571.5 -305.8 0zm305.8 -1258.7l0 429.7 167.2 0c120.7,0 201.4,-7.8 242,-23.6 40.6,-15.9 72.3,-40.6 95.6,-74.5 22.9,-33.8 34.6,-73 34.6,-117.8 0,-55 -16.2,-100.5 -48.7,-136.5 -32.1,-35.6 -73.4,-58.2 -122.8,-67 -36.6,-7.1 -110,-10.3 -220.1,-10.3l-147.8 0z" id="path3601"/>
  <path class="fil1" d="M36519.4 41100.3l0 -164.4c-40.2,58.6 -92.8,104.8 -157.7,138.6 -65.2,33.6 -134,50.5 -206.3,50.5 -73.8,0 -139.7,-16.2 -198.3,-48.3 -58.6,-32.5 -100.9,-78 -127.4,-136.6 -26.1,-58.5 -39.1,-139.7 -39.1,-243l0 -694.3 290.3 0 0 504.1c0,154.6 5.3,249.1 16.2,284 10.6,34.6 30,62.1 58.3,82.6 28.2,20.4 64.2,30.3 107.5,30.3 49.8,0 94.2,-13.4 133.4,-40.6 39.2,-27.5 66,-61 80.4,-101.2 14.5,-40.6 21.9,-139.3 21.9,-296.3l0 -462.9 290.3 0 0 1097.5 -269.5 0z" id="path3603"/>
  <path class="fil1" d="M31427.2 49100.2l-361.6 -1515.1 312.9 0 228.6 1040.6 276.9 -1040.6 363.7 0 265.7 1058.3 232.4 -1058.3 308 0 -367.9 1515.1 -324.6 0 -301.6 -1132.7 -300.9 1132.7 -331.6 0z" id="path3605"/>
  <path class="fil1" d="M33914.9 48543.2l0 -255.4 659.3 0 0 603.6c-64.2,62 -157,116.7 -278.7,164 -121.7,46.9 -244.8,70.6 -369.3,70.6 -158.4,0 -296.7,-33.2 -414.5,-99.5 -117.8,-66.7 -206.4,-161.6 -265.7,-285.4 -59.2,-123.8 -88.9,-258.2 -88.9,-403.6 0,-157.7 33.2,-298.1 99.2,-420.8 66.3,-122.4 162.9,-216.6 290.7,-281.9 97,-50.4 218,-75.5 362.6,-75.5 188,0 335.1,39.5 440.6,118.2 105.8,79 173.9,188 204.3,327.4l-303.8 56.8c-21.5,-74.5 -61.7,-133.4 -120.6,-176.4 -58.9,-43.1 -132.3,-64.6 -220.5,-64.6 -133.7,0 -239.9,42.3 -318.9,127 -79,85 -118.2,210.6 -118.2,377.5 0,179.5 39.9,314.6 120,404.6 79.7,90 184.5,134.8 313.9,134.8 64.2,0 128.4,-12.7 193,-37.8 64.2,-25 119.6,-55.7 165.8,-91.4l0 -192.2 -350.3 0z" id="path3607"/>
  <path class="fil1" d="M34856.5 49100.2l0 -1515.1 490.7 0c185.9,0 307.2,7.7 363.7,22.9 86.7,22.6 159.8,72 218.3,148.2 58.6,76.2 87.9,174.6 87.9,294.9 0,93.1 -17,171.4 -50.8,234.6 -33.9,63.5 -76.6,113.2 -128.8,149.5 -51.9,36 -104.8,60 -158.4,71.6 -73,14.5 -178.8,21.9 -317.5,21.9l-199.3 0 0 571.5 -305.8 0zm305.8 -1258.7l0 429.7 167.2 0c120.7,0 201.4,-7.8 242,-23.6 40.6,-15.9 72.3,-40.6 95.6,-74.5 22.9,-33.8 34.6,-73 34.6,-117.8 0,-55 -16.2,-100.5 -48.7,-136.5 -32.1,-35.6 -73.4,-58.2 -122.8,-67 -36.6,-7.1 -110,-10.3 -220.1,-10.3l-147.8 0z" id="path3609"/>
  <path class="fil1" d="M36988.6 49100.2l0 -164.4c-40.2,58.6 -92.8,104.8 -157.7,138.6 -65.2,33.6 -134,50.5 -206.3,50.5 -73.8,0 -139.7,-16.2 -198.3,-48.3 -58.6,-32.5 -100.9,-78 -127.4,-136.6 -26.1,-58.5 -39.1,-139.7 -39.1,-243l0 -694.3 290.3 0 0 504.1c0,154.6 5.3,249.1 16.2,284 10.6,34.6 30,62.1 58.3,82.6 28.2,20.4 64.2,30.3 107.5,30.3 49.8,0 94.2,-13.4 133.4,-40.6 39.2,-27.5 66,-61 80.4,-101.2 14.5,-40.6 21.9,-139.3 21.9,-296.3l0 -462.9 290.3 0 0 1097.5 -269.5 0z" id="path3611"/>
  <path class="fil1" d="M31208.1 57700.2l0 -1515.1 457.9 0 274.8 1033.6 271.7 -1033.6 458.9 0 0 1515.1 -284 0 0 -1192.7 -300.9 1192.7 -294.5 0 -299.9 -1192.7 0 1192.7 -284 0z" id="path3613"/>
  <path class="fil1" d="M32913.4 56952c0,-154.5 22.9,-284 69.1,-388.8 34.6,-76.9 81.5,-146.4 141.1,-207.7 59.6,-61.1 124.9,-106.6 195.8,-136.2 94.5,-40.2 203.2,-60 326.7,-60 223.3,0 401.8,69.2 535.8,207.8 134.1,138.3 201.1,330.9 201.1,577.5 0,244.8 -66.7,436 -199.7,574.3 -133,137.9 -310.8,207.1 -533,207.1 -225.4,0 -404.6,-68.8 -537.6,-206.1 -133,-137.5 -199.3,-327 -199.3,-567.9zm315 -10.2c0,171.4 39.9,301.6 118.9,390.1 79.3,88.6 179.9,132.7 301.9,132.7 121.7,0 221.9,-43.8 300.2,-132 78,-87.8 117.2,-219.4 117.2,-395.1 0,-173.5 -38.1,-303 -114,-388.7 -76.2,-85.4 -177.4,-128.1 -303.4,-128.1 -126.2,0 -227.8,43.4 -305.1,129.8 -76.9,86.5 -115.7,216.6 -115.7,391.3z" id="path3615"/>
  <path class="fil1" d="M34467.7 57700.2l517.9 -790.6 -469.2 -724.5 357.3 0 304.1 486.8 297.4 -486.8 354.5 0 -471.3 735.8 517.9 779.3 -369 0 -335.8 -523.9 -336.9 523.9 -366.9 0z" id="path3617"/>
  
  
  
  
  
  
  
  
  
  
  
  
  
  
  
  
  <path class="fil1" d="M50006.9 18981.2l-868.6 0 -173.5 214.5 -198.3 237.8c-38.8,51.5 -67,97.3 -84.6,139 -14.1,31.7 -21.2,62.7 -21.2,94.5 0,33.2 17.6,64.2 52.9,92.4 35.3,28.2 93.1,44.5 175,48.7l0 76.2 -837.5 0 20.5 -76.2c74.8,-12.7 141.1,-38.8 198.9,-79 76.9,-55 187.7,-168.6 332.3,-340.8l1986.8 -2370.6 93.2 0 -93.2 2293.7c-4.2,119.9 -6.3,192.6 -6.3,217.3 0,93.8 19,162.3 57.1,204.6 37.4,43.1 100.9,67.7 189.1,74.8l-21.2 76.2 -1212.8 0 22.6 -76.2c119.9,-11.3 188.4,-21.2 206.7,-28.9 38.8,-19.8 73.4,-60 105.2,-121.4 31.7,-61.4 51.5,-167.9 57.8,-318.9l19.1 -357.7zm0 -170l53.6 -913 -779.6 913 726 0z" id="path3651"/>
  <path class="fil1" d="M52704.1 19386.2l62.1 55.7c-134.1,160.2 -265.3,277.3 -395.1,351.4 -172.2,99.5 -350.7,148.9 -535.5,148.9 -123.5,0 -233.6,-26.9 -329.5,-79.8 -96,-52.9 -166.5,-127 -211.7,-222.9 -45.8,-96 -68.4,-194 -68.4,-294.9 0,-225.8 61.4,-448 184.1,-666.1 122.8,-218.7 284.3,-391.5 485.4,-519.2 201.8,-127 399.4,-191.2 593.4,-191.2 155.9,0 273,34.5 351.3,103.7 79.1,68.4 117.9,153.8 117.9,256.1 0,92.4 -29.7,170.7 -88.9,235.6 -59.3,65 -124.9,97.4 -198.3,97.4 -63.5,0 -115.7,-21.2 -158,-62.1 -42.4,-41.6 -62.8,-90.3 -62.8,-146.7 0,-74.8 36.7,-139.7 111.4,-194.8 50.8,-38.1 76.2,-71.9 76.2,-100.9 0,-24.6 -9.8,-45.1 -31,-59.9 -27.5,-21.9 -63.5,-33.2 -107.2,-33.2 -115.7,0 -224.4,46.6 -326.7,140.4 -134.8,124.2 -238.5,281.5 -309.7,471.3 -72,190.5 -108,371.1 -108,541.9 0,134.7 36.7,242.7 109.4,323.1 73.4,80.4 160.1,121.4 261,121.4 88.2,0 183.5,-23.3 285.8,-68.5 103,-45.8 200.3,-114.3 292.8,-206.7z" id="path3653"/>
  <path class="fil1" d="M54206.8 17463.6l-165.8 562.3 270.9 0 -71.9 237.8 -266.7 0 -345.7 1198.7c-21.9,74.8 -32.5,131.2 -32.5,170 0,17.7 5.7,33.2 18.4,45.9 12,13.4 26.1,19.7 41.6,19.7 23.3,0 47.3,-9.1 72,-28.9 63.5,-48 136.8,-131.9 221.5,-251.9l72 45.2c-95.3,165.8 -199.7,287.1 -314,364 -114.3,76.9 -227.2,115.8 -337.3,115.8 -93.8,0 -166.5,-24 -218,-71.3 -51.5,-47.3 -77.6,-108 -77.6,-180.6 0,-80.5 18.4,-182.8 53.7,-308.3l326.6 -1118.3 -280.8 0 40.9 -153.1c176.4,-64.2 325.3,-140.4 446.6,-227.2 121.4,-86.8 267.4,-226.5 438.2,-419.8l107.9 0z" id="path3655"/>
  <path class="fil1" d="M55120.5 17017.7c85.3,0 157.3,29.7 215.9,88.2 58.5,59.3 87.4,131.2 87.4,215.2 0,84 -29.6,155.9 -88.9,215.2 -59.2,59.2 -130.5,88.9 -214.4,88.9 -83.3,0 -153.8,-29.7 -213.1,-88.9 -59.3,-59.3 -88.9,-131.2 -88.9,-215.2 0,-84 28.9,-155.9 87.5,-215.2 58.5,-58.5 130.5,-88.2 214.5,-88.2zm127.7 950.4l-423.4 1469.6c-23.2,84 -35.2,139 -35.2,165.8 0,14.8 6.3,28.9 18.3,42.3 12.7,12.7 25.4,19.1 39.5,19.1 23.3,0 46.6,-9.9 70.6,-31.1 61.4,-50.8 136.1,-143.2 222.9,-276.5l70.6 41.6c-208.2,361.9 -429.7,543.3 -663.9,543.3 -89.6,0 -160.9,-25.4 -213.8,-75.5 -52.9,-50.1 -79.7,-114.3 -79.7,-191.2 0,-50.8 12,-115.7 35.2,-194.1l287.2 -988.4c27.5,-94.6 41.6,-166.5 41.6,-214.5 0,-30.3 -13.4,-57.1 -39.5,-81.1 -26.1,-23.3 -62.1,-34.6 -107.2,-34.6 -21.2,0 -45.9,0.7 -74.8,1.4l26.8 -82.5 701.3 -113.6 123.5 0z" id="path3657"/>
  <path class="fil1" d="M55928.3 19942.2l-74.1 0c4.2,-112.9 6.3,-198.3 6.3,-256.2 0,-157.3 -12.7,-384.5 -36.6,-681.5 -24,-296.3 -51.6,-494.6 -81.2,-594.1 -24,-72.6 -55,-126.2 -93.1,-158.7 -26.1,-22.6 -60,-33.2 -101.6,-33.2 -23.3,0 -51.5,2.9 -84.7,7.8l0 -74.1 688.6 -184.1c137.6,376 204.6,857.9 200.4,1444.9 202.5,-192.6 342.2,-349.2 418.4,-469.2 76.2,-119.9 115,-220.1 115,-299.8 0,-63.5 -24,-127.7 -71.3,-193.3 -48,-65.7 -77.6,-111.5 -88.9,-139.7 -12,-27.6 -17.6,-57.9 -17.6,-90.3 0,-72 23.3,-132 69.8,-180 47.3,-48.6 106.6,-72.6 177.8,-72.6 76.2,0 134.8,24 175.7,72.6 57.9,67.1 86.8,147.5 86.8,239.9 0,94.6 -16.9,188.4 -50.1,280.1 -33.9,91 -91.7,199.7 -174.3,323.9 -81.8,124.8 -172.8,238.4 -273.7,340 -184.2,187.7 -448,426.9 -791.6,717.6z" id="path3659"/>
  <path class="fil1" d="M58175.4 17017.7c85.3,0 157.3,29.7 215.9,88.2 58.5,59.3 87.4,131.2 87.4,215.2 0,84 -29.6,155.9 -88.9,215.2 -59.2,59.2 -130.5,88.9 -214.4,88.9 -83.3,0 -153.8,-29.7 -213.1,-88.9 -59.3,-59.3 -88.9,-131.2 -88.9,-215.2 0,-84 28.9,-155.9 87.5,-215.2 58.5,-58.5 130.5,-88.2 214.5,-88.2zm127.7 950.4l-423.4 1469.6c-23.2,84 -35.2,139 -35.2,165.8 0,14.8 6.3,28.9 18.3,42.3 12.7,12.7 25.4,19.1 39.5,19.1 23.3,0 46.6,-9.9 70.6,-31.1 61.4,-50.8 136.1,-143.2 222.9,-276.5l70.6 41.6c-208.2,361.9 -429.7,543.3 -663.9,543.3 -89.6,0 -160.9,-25.4 -213.8,-75.5 -52.9,-50.1 -79.7,-114.3 -79.7,-191.2 0,-50.8 12,-115.7 35.2,-194.1l287.2 -988.4c27.5,-94.6 41.6,-166.5 41.6,-214.5 0,-30.3 -13.4,-57.1 -39.5,-81.1 -26.1,-23.3 -62.1,-34.6 -107.2,-34.6 -21.2,0 -45.9,0.7 -74.8,1.4l26.8 -82.5 701.3 -113.6 123.5 0z" id="path3661"/>
  <path class="fil1" d="M59613.9 17463.6l-165.8 562.3 270.9 0 -71.9 237.8 -266.7 0 -345.7 1198.7c-21.9,74.8 -32.5,131.2 -32.5,170 0,17.7 5.7,33.2 18.4,45.9 12,13.4 26.1,19.7 41.6,19.7 23.3,0 47.3,-9.1 72,-28.9 63.5,-48 136.8,-131.9 221.5,-251.9l72 45.2c-95.3,165.8 -199.7,287.1 -314,364 -114.3,76.9 -227.2,115.8 -337.3,115.8 -93.8,0 -166.5,-24 -218,-71.3 -51.5,-47.3 -77.6,-108 -77.6,-180.6 0,-80.5 18.4,-182.8 53.7,-308.3l326.6 -1118.3 -280.8 0 40.9 -153.1c176.4,-64.2 325.3,-140.4 446.6,-227.2 121.4,-86.8 267.4,-226.5 438.2,-419.8l107.9 0z" id="path3663"/>
  <path class="fil1" d="M59683.7 18154.3l637.1 -186.2c50.8,63.5 86.8,123.4 107.3,179.9 37.4,98.1 63.5,232.8 78.3,405 28.9,339.3 49.4,700.6 60,1085.1 147.4,-194.1 316.7,-450.9 506.5,-770.5 57.9,-96.6 86.8,-187.6 86.8,-273 0,-53.6 -33.1,-105.1 -100.2,-153.1 -67,-48 -108.6,-86.1 -124.8,-112.9 -17,-26.8 -24.7,-61.4 -24.7,-104.4 0,-68.5 24.7,-128.4 75.5,-179.2 50,-51.5 110.7,-76.9 182.7,-76.9 75.5,0 141.8,28.9 197.5,86.8 55.8,57.8 83.3,126.2 83.3,204.6 0,92.4 -25.4,199.6 -77.6,321.7 -51.5,122 -172.2,330.9 -362.7,627.2 -243.4,378.9 -482.6,706.9 -716.8,984.2 -150.3,176.4 -271.6,303.4 -364,381 -92.5,77.6 -188.4,139.7 -287.2,184.9 -59.3,26.1 -117.8,39.5 -175.7,39.5 -79,0 -146,-27.6 -201.8,-82.6 -55.7,-55 -83.2,-120.6 -83.2,-196.8 0,-75.5 24.7,-139.7 74.8,-191.9 50.8,-52.2 109.3,-78.3 177.1,-78.3 83.9,0 160.8,43.7 231.4,131.9 46.5,59.3 85.4,88.9 115.7,88.9 31.7,0 62.8,-9.2 93.1,-26.8 41.6,-21.9 99.5,-73.4 173.6,-153.1 8.4,-172.2 12.7,-302 12.7,-390.2 0,-118.5 -5.7,-285.7 -17,-500.2l-35.2 -788.1c-12,-144.6 -43.1,-248.3 -92.5,-311.8 -38.8,-46.6 -88.9,-70.6 -150.9,-70.6 -24,0 -50.1,2.1 -79.1,6.4l0 -80.5z" id="path3665"/>
  <path class="fil1" d="M63904.9 17968.1c108.7,0 211,25.4 306.9,75.5 95.3,50.1 167.9,120.6 216.6,209.5 49.4,89.6 73.4,189.1 73.4,297.7 0,223.7 -62.1,446.6 -187,670.3 -124.9,222.9 -288.5,398.6 -492.4,527.7 -204.6,129.2 -410,193.4 -616.7,193.4 -186.9,0 -332.3,-55.8 -434.6,-167.3 -103,-111.4 -154.5,-248.3 -154.5,-409.2 0,-191.9 38.8,-371.1 115,-539 76.2,-167.2 173.6,-313.3 291.4,-438.1 117.8,-124.2 253.3,-225.8 406.4,-303.4 153.1,-78.3 311.1,-117.1 475.5,-117.1zm-84.7 109.3c-73.3,0 -134,21.9 -182,64.2 -96.6,86.8 -205.3,290 -326.6,608.9 -121.4,318.9 -182.1,606.8 -182.1,862.9 0,63.5 19.1,115.7 57.9,157.3 38.8,40.9 83.9,62.1 136.2,62.1 54.3,0 101.5,-16.9 143.2,-50.1 60.7,-49.4 134.7,-160.9 222.9,-333.7 88.2,-172.9 160.9,-363.4 217.3,-572.2 56.5,-208.8 84.7,-400 84.7,-573.6 0,-72 -17.6,-127 -52.2,-166.5 -33.9,-39.5 -74.1,-59.3 -119.3,-59.3z" id="path3667"/>
  <path class="fil1" d="M65737.9 18267.9l-241.3 954.6c-113.6,450.8 -223.7,777.5 -330.9,980 -107.9,202.5 -233.5,352.8 -377.5,449.4 -143.9,97.4 -309,146.1 -495.2,146.1 -117.2,0 -203.2,-22.6 -258.3,-67.1 -55,-45.1 -82.5,-97.3 -82.5,-158 0,-56.4 22.6,-105.8 68.4,-146.8 45.2,-41.6 105.1,-62 179.9,-62 62.1,0 109.4,15.5 142.5,47.2 33.2,31.8 49.4,72 49.4,120 0,43.7 -10.5,76.9 -31,98 -20.5,21.2 -31.1,35.3 -31.1,42.4l10.6 14.8c8.5,6.3 17.7,9.9 29,9.9 40.9,0 76.2,-12.7 105.1,-38.8 73.4,-64.9 127.7,-143.3 163.7,-235.7 24.7,-63.5 71.9,-230.7 142.5,-502.3l421.9 -1651.7 -287.9 0 68.5 -242c103,1.4 178.5,-11.3 225,-38.8 47.3,-28.2 96.7,-89.6 148.9,-186.2 151.7,-280.1 311.9,-480.5 479.8,-601.9 167.9,-121.3 355.6,-181.3 562.3,-181.3 131.9,0 228.6,25.4 288.5,76.2 59.3,50.8 89.6,117.1 89.6,198.3 0,71.9 -19.7,128.4 -59.9,170.7 -40.2,41.6 -89.6,62.8 -148.9,62.8 -55,0 -100.9,-16.9 -136.2,-51.5 -35.9,-34.6 -53.6,-75.5 -53.6,-124.2 0,-34.5 11.3,-70.5 33.9,-109.3 22.6,-38.8 33.8,-64.9 33.8,-78.3 0,-15.6 -4.9,-27.6 -15.5,-37.4 -9.9,-9.9 -23.3,-14.9 -40.2,-14.9 -81.1,0 -164.4,50.8 -249.7,151 -141.2,161.6 -254,416.3 -339.4,764.8l299.8 0 -72.6 242 -291.4 0z" id="path3669"/>
  <path class="fil1" d="M68311.7 17463.6l-165.8 562.3 270.9 0 -71.9 237.8 -266.7 0 -345.7 1198.7c-21.9,74.8 -32.5,131.2 -32.5,170 0,17.7 5.7,33.2 18.4,45.9 12,13.4 26.1,19.7 41.6,19.7 23.3,0 47.3,-9.1 72,-28.9 63.5,-48 136.8,-131.9 221.5,-251.9l72 45.2c-95.3,165.8 -199.7,287.1 -314,364 -114.3,76.9 -227.2,115.8 -337.3,115.8 -93.8,0 -166.5,-24 -218,-71.3 -51.5,-47.3 -77.6,-108 -77.6,-180.6 0,-80.5 18.4,-182.8 53.7,-308.3l326.6 -1118.3 -280.8 0 40.9 -153.1c176.4,-64.2 325.3,-140.4 446.6,-227.2 121.4,-86.8 267.4,-226.5 438.2,-419.8l107.9 0z" id="path3671"/>
  <path class="fil1" d="M69665.6 17017.7l-537.6 1861.9c186.3,-274.4 321,-459.3 405,-555.9 125.6,-139 233.5,-232.9 323.8,-282.3 90.3,-48.6 176.4,-73.3 258.9,-73.3 70.6,0 130.6,26.8 181.4,79.7 50.1,52.9 75.5,123.5 75.5,211.7 0,74.7 -17,167.9 -50.1,279.3l-262.5 880.6c-23.3,76.9 -35.3,128.4 -35.3,155.2 0,12 5,23.3 14.8,33.8 9.9,10.6 20.5,15.6 33.2,15.6 16.2,0 33.2,-7.1 49.4,-20.5 44.4,-34.6 91,-89.6 140.4,-165.8 12.7,-19.1 32.4,-48 60,-86.8l81.1 45.9c-118.5,195.4 -231.4,329.5 -337.2,402.8 -105.9,72.7 -206.8,109.4 -302,109.4 -85.4,0 -152.4,-21.9 -200.4,-66.3 -48,-43.8 -71.9,-98.8 -71.9,-165.1 0,-60.7 16.2,-146.8 49.3,-258.2l256.1 -880.6c17,-60.6 24.7,-105.1 24.7,-132.6 0,-14.8 -5.6,-28.2 -17.6,-40.2 -11.3,-11.3 -24.7,-17.6 -40.2,-17.6 -49.4,0 -117.8,41.6 -204.6,124.1 -179.2,169.4 -358.4,435.3 -536.9,798l-184.2 613.8 -512.9 0 678 -2336c27.5,-98.8 41.6,-170.1 41.6,-212.4 0,-34.6 -14.1,-61.4 -41.6,-81.1 -36,-26.1 -91,-36.7 -165.1,-32.5l14.1 -83.2 688.6 -121.4 124.2 0z" id="path3673"/>
  <path class="fil1" d="M71290.5 19108.9c-12.7,89.6 -19.1,163.7 -19.1,221.6 0,103 30.4,186.2 90.3,247.6 60,62.1 139.7,93.1 240.6,93.1 96.7,0 193.4,-23.3 290.7,-69.8 96.7,-47.3 209.6,-129.1 338,-246.3l61.3 55.8c-158,191.9 -312.5,328.1 -462.8,409.2 -150.3,81.1 -316.1,122.1 -498.1,122.1 -230,0 -389.4,-55.1 -477.6,-165.1 -88.2,-110.8 -132,-237.8 -132,-382.4 0,-226.5 65.6,-452.3 197.6,-678.1 131.2,-226.4 310.4,-407.1 536.9,-543.9 227.2,-136.2 454.4,-204.6 683.7,-204.6 115.7,0 203.1,27.5 262.4,82.5 59.3,55.1 88.9,124.9 88.9,208.9 0,100.8 -28.9,198.9 -86.8,293.5 -80.4,129.8 -180.6,234.2 -301.9,313.2 -121.4,79 -256.9,139.7 -407.1,180.6 -100.9,28.3 -235.7,48.7 -405,62.1zm18.3 -107.2c121.4,-17.7 215.2,-42.4 282.2,-73.4 66.4,-31 132,-80.4 196.2,-148.9 64.2,-68.4 119.9,-154.5 166.5,-258.2 46.6,-104.4 70.5,-201.8 70.5,-292.8 0,-38.1 -11.2,-68.4 -32.4,-91 -21.2,-21.9 -48.7,-32.5 -81.9,-32.5 -65.6,0 -140.4,45.9 -222.9,138.3 -151.7,167.9 -278,421.2 -378.2,758.5z" id="path3675"/>
  <path class="fil1" d="M75297.9 17238.5l-309.7 1058.3c210.2,-2.8 347.8,-11.2 411.3,-24.6 103,-20.5 196.8,-64.2 280.8,-131.3 83.9,-67 154.5,-159.4 210.9,-278l80.5 0 -320.3 1105.6 -82.6 0c13.4,-71.2 20.5,-128.4 20.5,-171.4 0,-85.4 -17.7,-153.8 -52.9,-204.6 -34.6,-50.8 -79.8,-86.1 -134.8,-104.5 -55.7,-18.3 -206.7,-30.3 -455.1,-35.9l-251.8 874.1 -50.1 175.7c-6.4,34.6 -9.9,68.4 -9.9,101.6 0,48 9.2,86.1 27.5,113.6 19,27.5 48.7,49.4 90.3,64.9 40.9,15.5 119.9,24.7 235.7,26.1l-23.3 76.2 -1399.1 0 22.6 -76.2c135.4,0 233.5,-25.4 295.6,-75.5 62.1,-50.8 117.8,-160.1 167.2,-330.2l500.2 -1715.1c52.9,-180.6 80.5,-296.4 83.3,-347.2 -2.8,-48.6 -24.7,-89.6 -66.3,-123.4 -41.7,-33.9 -126.3,-52.9 -254,-58.6l20.4 -76.9 2290.2 0 -188.4 740.1 -76.2 0c-8.4,-154.5 -32.4,-268.8 -72.7,-344.3 -39.5,-74.8 -105.8,-133.3 -196.8,-175.7 -91.7,-41.6 -238.5,-62.8 -439.5,-62.8l-353.5 0z" id="path3677"/>
  <path class="fil1" d="M77513.9 17968.1l-401.4 1405.4c-19.1,64.9 -29,110.1 -29,134.8 0,11.9 5,21.8 14.9,28.9 11.2,10.6 23.9,16.2 39.5,16.2 62.8,0 148.1,-56.4 254,-169.3 151.7,-163.7 310.4,-399.4 477.6,-707l187.7 -632.1 522.8 -19.1 -396.5 1364.5c-33.2,115.7 -49.4,182.1 -49.4,198.3 0,11.3 4.9,22.6 15.5,33.8 9.9,12 20.5,17.7 31.8,17.7 19,0 38.1,-7.8 55.7,-24.7 49.4,-40.2 115,-120.7 196.1,-242l70.6 50.1c-191.2,345.7 -402.2,518.6 -632.2,518.6 -85.3,0 -153.1,-21.9 -201.8,-65 -48.6,-43.7 -73.3,-100.1 -73.3,-170.7 0,-74.1 16.9,-168.6 51.5,-282.9l101.6 -349.3c-179.2,260.4 -309.8,436.1 -390.9,527.1 -124.2,136.1 -228.6,227.2 -313.3,272.3 -84.6,45.9 -165.8,68.5 -242.7,68.5 -73.3,0 -136.1,-26.9 -189,-80.5 -53,-53.6 -79.8,-122 -79.8,-204.6 0,-70.5 17,-165.1 51.5,-283.6l233.6 -826.9c38.8,-134.7 57.8,-225.8 57.8,-272.3 0,-21.2 -4.9,-38.8 -16.2,-55.1 -11.3,-15.5 -29.6,-28.2 -55,-37.4 -25.4,-8.4 -72.7,-13.4 -141.1,-13.4l20.4 -78.3 704.8 -122 124.2 0z" id="path3679"/>
  <path class="fil1" d="M79405.5 19108.9c-12.7,89.6 -19.1,163.7 -19.1,221.6 0,103 30.4,186.2 90.3,247.6 60,62.1 139.7,93.1 240.6,93.1 96.7,0 193.4,-23.3 290.7,-69.8 96.7,-47.3 209.6,-129.1 338,-246.3l61.3 55.8c-158,191.9 -312.5,328.1 -462.8,409.2 -150.3,81.1 -316.1,122.1 -498.1,122.1 -230,0 -389.4,-55.1 -477.6,-165.1 -88.2,-110.8 -132,-237.8 -132,-382.4 0,-226.5 65.6,-452.3 197.6,-678.1 131.2,-226.4 310.4,-407.1 536.9,-543.9 227.2,-136.2 454.4,-204.6 683.7,-204.6 115.7,0 203.1,27.5 262.4,82.5 59.3,55.1 88.9,124.9 88.9,208.9 0,100.8 -28.9,198.9 -86.8,293.5 -80.4,129.8 -180.6,234.2 -301.9,313.2 -121.4,79 -256.9,139.7 -407.1,180.6 -100.9,28.3 -235.7,48.7 -405,62.1zm18.3 -107.2c121.4,-17.7 215.2,-42.4 282.2,-73.4 66.4,-31 132,-80.4 196.2,-148.9 64.2,-68.4 119.9,-154.5 166.5,-258.2 46.6,-104.4 70.5,-201.8 70.5,-292.8 0,-38.1 -11.2,-68.4 -32.4,-91 -21.2,-21.9 -48.7,-32.5 -81.9,-32.5 -65.6,0 -140.4,45.9 -222.9,138.3 -151.7,167.9 -278,421.2 -378.2,758.5z" id="path3681"/>
  <path class="fil1" d="M81961.6 17017.7l-683.7 2326.9c-40.2,138.3 -59.9,224.3 -59.9,258.9 0,17.6 5.6,32.5 17.6,45.2 11.3,12.7 24,18.3 38.1,18.3 24.7,0 48,-9.2 69.9,-28.9 66.3,-53.7 140.4,-144.7 221.5,-272.4l80.4 36.7c-130.5,209.6 -259.6,359.1 -386.6,448.7 -86.8,60.7 -179.2,91.1 -276.6,91.1 -91,0 -163.7,-24.7 -217.3,-73.4 -53.6,-48.7 -80.4,-108 -80.4,-176.4 0,-51.5 16.2,-133.4 49.4,-246.2l558.1 -1905.7c30.3,-105.1 45.8,-174.2 45.8,-208.8 0,-33.2 -14.8,-59.3 -43.7,-79 -38.8,-27.6 -97.4,-38.8 -175.7,-34.6l22.6 -79 697 -121.4 123.5 0z" id="path3683"/>
  <path class="fil1" d="M83373.4 17968.1l-90.4 638.5 -76.9 0c-10.5,-165.1 -61.3,-294.9 -151.7,-390.2 -90.3,-95.2 -186.9,-142.5 -290.6,-142.5 -63.5,0 -115.7,18.3 -156.7,55.7 -41.6,36.7 -62,81.9 -62,134.1 0,44.4 8.4,85.4 26.8,124.2 17.6,38.8 57.8,91 119.9,157.3 217.3,234.2 349.9,395.1 396.5,483.3 47.3,88.2 70.6,182.7 70.6,282.9 0,109.4 -27.5,212.4 -82.6,309 -55.7,97.4 -137.6,175.7 -247.6,234.3 -109.4,58.5 -223,87.5 -341.5,87.5 -80.4,0 -178.5,-15.6 -295.6,-47.3 -77.6,-22.6 -135.5,-33.2 -173.6,-33.2 -34.6,0 -61.4,5 -81.1,15.5 -19.1,9.9 -40.2,31.8 -64.2,65l-76.2 0 101.6 -688.6 65.6 0c48.7,167.2 93.8,285.7 135.5,357 42.3,70.5 98,126.9 168.6,169.3 70.5,42.3 137.6,62.8 202.5,62.8 76.2,0 138.3,-23.3 188.3,-71.3 49.4,-47.3 74.1,-104.4 74.1,-170 0,-64.9 -16.2,-127.7 -48.7,-188.4 -32.4,-60.7 -106.5,-155.2 -223.6,-282.9 -161.6,-175 -267.4,-310.4 -318.9,-405.7 -35.3,-68.4 -53.6,-147.5 -53.6,-235.6 0,-148.2 54.3,-272.4 162.2,-371.9 108,-99.4 260.4,-148.8 455.8,-148.8 85.4,0 190.5,15.5 314,45.8 62.1,14.8 112.2,22.6 148.8,22.6 54.4,0 97.4,-22.6 130.6,-68.4l74.1 0z" id="path3685"/>
  <path class="fil1" d="M108293 65674.3l0 64.1c-77,10 -136.4,32.3 -177.6,67 -57.6,48.2 -148.1,179.9 -272.2,394.5l-506.2 845.5 0 565c0,120.5 5.9,195.8 18.8,225.2 12.3,28.8 37.6,54.7 74.7,77 37.6,22.9 87,34.1 149.3,34.1l130.5 0 0 63.5 -1310.5 0 0 -63.5 122.3 0c68.8,0 123.5,-12.3 163.4,-36.5 30,-15.8 53.5,-43.5 70.6,-82.9 12.9,-27 19.4,-99.3 19.4,-216.9l0 -468.6 -549.7 -1000.7c-109.4,-197.5 -185.8,-313.4 -231.1,-348.6 -44.7,-35.3 -104.1,-53 -178.7,-54.1l0 -64.1 1119.4 0 0 64.1 -50 0c-67.6,0 -115.2,9.4 -142.2,29.4 -27.1,19.4 -40,39.9 -40,61.7 0,41.2 45.8,145.2 137.6,311.6l422.1 773.7 420.4 -704.9c104.1,-172.3 156.4,-286.3 156.4,-342.8 0,-30.6 -14.7,-56.4 -44.7,-77 -38.8,-28.8 -111.1,-45.9 -215.2,-51.7l0 -64.1 713.2 0z" id="path3687"/>
  <path class="fil1" d="M109424 67147.1l-883.1 0c10,213.4 67,382.7 170.5,506.8 78.8,95.3 174,142.9 285.8,142.9 68.7,0 131.7,-19.4 187.5,-57.6 56.5,-38.8 116.4,-108.2 181.1,-207.6l58.2 37.6c-87,178.2 -183.4,304 -289.3,378.1 -105.2,74.1 -227.5,111.1 -366.8,111.1 -238.8,0 -419.8,-91.7 -542.7,-275.7 -98.8,-148.2 -148.2,-331.6 -148.2,-550.9 0,-268.7 72.9,-482.8 218.1,-642.1 145.3,-158.7 315.8,-238.1 511,-238.1 162.8,0 304.5,66.4 424.5,200.5 119.9,134 184.6,332.2 193.4,595zm-423.3 -115.2c0,-185.3 -10,-311.7 -30.6,-381 -20,-68.8 -51.1,-121.2 -93.5,-156.4 -24.1,-20.6 -56.4,-31.2 -96.4,-31.2 -60,0 -108.8,29.4 -146.4,88.2 -67.6,101.7 -101.7,242.2 -101.7,419.8l0 60.6 468.6 0z" id="path3689"/>
  <path class="fil1" d="M110515 67772.7c-196.3,173.4 -372.7,259.8 -529.1,259.8 -91.7,0 -168.2,-29.9 -228.7,-90.5 -61.2,-60 -91.2,-135.8 -91.2,-226.4 0,-122.8 52.4,-233.4 158.2,-331.6 105.8,-98.2 335.7,-228.7 690.8,-391.5l0 -162.3c0,-121.7 -6.4,-198.2 -19.9,-229.9 -13,-31.8 -38.3,-59.4 -74.7,-82.9 -37.1,-23.5 -78.2,-35.3 -124.1,-35.3 -74.6,0 -136.4,17.1 -184.6,50 -29.4,20.6 -44.7,44.7 -44.7,72.3 0,24.1 16.5,54.1 48.2,90 43.5,49.4 65.9,97 65.9,142.8 0,56.5 -21.2,104.1 -62.9,144.1 -42.4,39.4 -97,59.4 -164.6,59.4 -72.4,0 -132.9,-22.4 -181.7,-65.9 -48.8,-43.5 -73.5,-94.6 -73.5,-152.8 0,-82.9 32.9,-161.7 98.2,-237 65.8,-75.2 157,-132.9 274,-173.4 117,-40 238.7,-60 365.1,-60 152.8,0 273.4,32.3 362.7,97 88.8,65.3 146.4,135.2 172.9,211.1 16.5,48.2 24.1,159.3 24.1,332.8l0 624.9c0,73.5 2.9,120 8.8,138.8 5.9,18.8 14.1,32.9 25.9,42.3 11.2,8.9 24.7,13.6 39.4,13.6 30,0 60.5,-21.2 91.7,-63.5l51.2 41.1c-57.1,85.3 -116.5,147 -178.2,185.2 -61.1,38.2 -131.1,57.6 -209.3,57.6 -91.7,0 -163.5,-21.7 -215.2,-64.6 -51.7,-43 -83.5,-108.2 -94.7,-195.2zm0 -125.9l0 -539.1c-138.7,81.7 -242.2,168.7 -309.8,261.6 -45.3,62.4 -67.6,124.7 -67.6,187.6 0,52.9 18.8,99.4 57,139.9 28.8,31.2 68.8,46.5 120.5,46.5 57.7,0 124.1,-32.4 199.9,-96.5z" id="path3691"/>
  <path class="fil1" d="M112058 66399.8l0 365.1c107,-166.4 200.5,-276.9 280.4,-331.6 80.6,-54.7 158.2,-81.7 232.8,-81.7 64.1,0 115.9,19.4 154.1,59.4 38.8,39.4 57.6,95.2 57.6,167.5 0,77.1 -18.2,137 -55.8,179.4 -37.1,42.3 -82.4,64.1 -135.3,64.1 -60.5,0 -113.5,-20 -158.1,-58.8 -45.3,-39.4 -71.8,-61.2 -79.4,-65.3 -11.8,-7.1 -24.7,-10.6 -40,-10.6 -32.9,0 -64.7,12.4 -94.6,37.6 -47.1,39.4 -82.4,95.3 -106.5,167.6 -37,111.1 -55.2,234 -55.2,368.7l0 369.8 1.7 97c0,65.2 4.1,107 11.8,125.2 14.1,31.2 34.1,54.1 61.1,68.2 27.1,14.7 72.9,23.5 137,27.1l0 61.7 -869.6 0 0 -61.7c70,-5.9 117.1,-25.3 141.7,-58.2 24.7,-32.4 37.1,-118.8 37.1,-259.3l0 -890.2c0,-91.7 -4.1,-150.5 -13.5,-175.8 -11.8,-32.3 -28.3,-55.8 -50,-70.5 -21.8,-15.3 -60.6,-25.3 -115.3,-31.2l0 -63.5 658 0z" id="path3693"/>
  <path class="fil1" d="M113974 66355.1l25.9 549.2 -58.8 0c-70,-162.9 -142.9,-274.6 -218.2,-334 -75.2,-60 -149.9,-89.9 -224.6,-89.9 -47,0 -87,15.8 -120.5,47.6 -33.5,31.7 -50,68.2 -50,109.3 0,31.2 11.8,61.2 34.7,89.4 36.5,47 139.4,128.2 308.1,242.2 168.8,114.1 279.9,211.1 333.4,291.1 53.5,79.9 79.9,169.3 79.9,268.1 0,89.3 -22.3,177 -67,263.4 -44.7,85.8 -108.2,152.3 -189.3,198.1 -81.7,45.9 -171.7,68.8 -270.5,68.8 -77,0 -179.9,-24.1 -308.6,-72.3 -34.1,-12.9 -57.7,-18.8 -70.6,-18.8 -37.6,0 -69.4,28.8 -94.6,85.8l-57.1 0 -27.6 -578.5 58.8 0c51.7,151.7 122.9,265.1 212.8,341 90,75.8 175.2,113.5 255.8,113.5 55.2,0 99.9,-17.1 135.2,-50.6 34.7,-34.1 52.3,-75.3 52.3,-123.5 0,-54.6 -17,-102.3 -51.7,-142.8 -34.1,-40 -111.1,-101.2 -230.5,-182.3 -175.8,-121.7 -289.3,-215.2 -341,-279.3 -75.8,-94.1 -114.1,-198.1 -114.1,-311.6 0,-124.1 43,-236.4 128.8,-336.9 85.3,-100.5 209.3,-150.5 371,-150.5 87,0 171.7,21.2 253.4,63.5 30.6,17 55.9,25.9 75.3,25.9 21.1,0 37.6,-4.2 49.9,-13 13,-8.8 33,-32.9 60.6,-72.9l58.8 0z" id="path3695"/>
  <path class="fil1" d="M10463.1 65512.1l0 1910.2c0,143.5 6.4,235.2 18.8,275.2 12.9,39.4 39.4,71.7 79.3,97 40,25.3 104.7,38.2 192.9,38.2l53.5 0 0 63.5 -1230 0 0 -63.5 62.3 0c100,0 171.1,-11.8 213.5,-34.7 42.3,-22.9 71.1,-54.7 85.8,-94.6 15.3,-40 22.9,-134.1 22.9,-281.1l0 -1210.6c0,-108.2 -5.3,-175.8 -15.9,-202.2 -9.9,-27.1 -29.4,-50 -57.6,-69.4 -28.2,-18.8 -60.5,-28.2 -97,-28.2 -58.8,0 -129.9,18.2 -214,55.2l-30.6 -62.3 859 -392.7 57.1 0z" id="path3697"/>
  <path class="fil1" d="M7963.1 54812.1l0 1910.2c0,143.5 6.4,235.2 18.8,275.2 12.9,39.4 39.4,71.7 79.3,97 40,25.3 104.7,38.2 192.9,38.2l53.5 0 0 63.5 -1230 0 0 -63.5 62.3 0c100,0 171.1,-11.8 213.5,-34.7 42.3,-22.9 71.1,-54.7 85.8,-94.6 15.3,-40 22.9,-134.1 22.9,-281.1l0 -1210.6c0,-108.2 -5.3,-175.8 -15.9,-202.2 -9.9,-27.1 -29.4,-50 -57.6,-69.4 -28.2,-18.8 -60.5,-28.2 -97,-28.2 -58.8,0 -129.9,18.2 -214,55.2l-30.6 -62.3 859 -392.7 57.1 0z" id="path3699"/>
  <path class="fil1" d="M10212.5 56028.5c0,232.9 -32.3,450.4 -98.2,652.7 -38.8,124 -91.1,225.7 -157.6,305.1 -65.8,78.8 -141.1,141.7 -224.6,188.1 -84,46.5 -175.2,70 -273.9,70 -112.3,0 -214.1,-28.8 -304.6,-85.8 -91.1,-57.6 -171.1,-140 -241.6,-246.4 -50.6,-78.2 -94.7,-182.2 -132.3,-312.2 -49.4,-175.8 -74.1,-356.9 -74.1,-543.8 0,-254 35.3,-487.4 106.4,-699.7 58.8,-175.8 147.6,-310.4 267.5,-403.9 119.4,-93.5 245.8,-140.5 378.7,-140.5 135.8,0 262.2,46.4 379.8,138.7 117.6,92.3 204,217 259.3,372.8 77,215.2 115.2,449.8 115.2,704.9zm-530.3 -3.5c0,-409.2 -2.4,-647.3 -7.1,-714.9 -11.2,-159.4 -38.8,-267.6 -82.3,-324 -28.8,-36.5 -75.3,-55.3 -139.9,-55.3 -49.4,0 -88.2,14.1 -117,41.8 -42.4,40 -71.2,111.1 -85.9,212.8 -15.3,101.1 -22.3,455.7 -22.3,1063.6 0,330.4 11.2,552.1 34.1,665 17,81.1 41.7,135.8 74.1,163.4 32.3,27.7 74.6,41.2 127.6,41.2 57.6,0 100.5,-18.2 129.3,-55.3 48.2,-64.1 75.8,-163.4 82.3,-297.5l7.1 -740.8z" id="path3701"/>
  <path class="fil1" d="M11976.3 56028.5c0,232.9 -32.3,450.4 -98.2,652.7 -38.8,124 -91.1,225.7 -157.6,305.1 -65.8,78.8 -141.1,141.7 -224.6,188.1 -84,46.5 -175.2,70 -273.9,70 -112.3,0 -214.1,-28.8 -304.6,-85.8 -91.1,-57.6 -171.1,-140 -241.6,-246.4 -50.6,-78.2 -94.7,-182.2 -132.3,-312.2 -49.4,-175.8 -74.1,-356.9 -74.1,-543.8 0,-254 35.3,-487.4 106.4,-699.7 58.8,-175.8 147.6,-310.4 267.5,-403.9 119.4,-93.5 245.8,-140.5 378.7,-140.5 135.8,0 262.2,46.4 379.8,138.7 117.6,92.3 204,217 259.3,372.8 77,215.2 115.2,449.8 115.2,704.9zm-530.3 -3.5c0,-409.2 -2.4,-647.3 -7.1,-714.9 -11.2,-159.4 -38.8,-267.6 -82.3,-324 -28.8,-36.5 -75.3,-55.3 -139.9,-55.3 -49.4,0 -88.2,14.1 -117,41.8 -42.4,40 -71.2,111.1 -85.9,212.8 -15.3,101.1 -22.3,455.7 -22.3,1063.6 0,330.4 11.2,552.1 34.1,665 17,81.1 41.7,135.8 74.1,163.4 32.3,27.7 74.6,41.2 127.6,41.2 57.6,0 100.5,-18.2 129.3,-55.3 48.2,-64.1 75.8,-163.4 82.3,-297.5l7.1 -740.8z" id="path3703"/>
  <path class="fil1" d="M8963.1 43812.1l0 1910.2c0,143.5 6.4,235.2 18.8,275.2 12.9,39.4 39.4,71.7 79.3,97 40,25.3 104.7,38.2 192.9,38.2l53.5 0 0 63.5 -1230 0 0 -63.5 62.3 0c100,0 171.1,-11.8 213.5,-34.7 42.3,-22.9 71.1,-54.7 85.8,-94.6 15.3,-40 22.9,-134.1 22.9,-281.1l0 -1210.6c0,-108.2 -5.3,-175.8 -15.9,-202.2 -9.9,-27.1 -29.4,-50 -57.6,-69.4 -28.2,-18.8 -60.5,-28.2 -97,-28.2 -58.8,0 -129.9,18.2 -214,55.2l-30.6 -62.3 859 -392.7 57.1 0z" id="path3705"/>
  <path class="fil1" d="M11212.5 45028.5c0,232.9 -32.3,450.4 -98.2,652.7 -38.8,124 -91.1,225.7 -157.6,305.1 -65.8,78.8 -141.1,141.7 -224.6,188.1 -84,46.5 -175.2,70 -273.9,70 -112.3,0 -214.1,-28.8 -304.6,-85.8 -91.1,-57.6 -171.1,-140 -241.6,-246.4 -50.6,-78.2 -94.7,-182.2 -132.3,-312.2 -49.4,-175.8 -74.1,-356.9 -74.1,-543.8 0,-254 35.3,-487.4 106.4,-699.7 58.8,-175.8 147.6,-310.4 267.5,-403.9 119.4,-93.5 245.8,-140.5 378.7,-140.5 135.8,0 262.2,46.4 379.8,138.7 117.6,92.3 204,217 259.3,372.8 77,215.2 115.2,449.8 115.2,704.9zm-530.3 -3.5c0,-409.2 -2.4,-647.3 -7.1,-714.9 -11.2,-159.4 -38.8,-267.6 -82.3,-324 -28.8,-36.5 -75.3,-55.3 -139.9,-55.3 -49.4,0 -88.2,14.1 -117,41.8 -42.4,40 -71.2,111.1 -85.9,212.8 -15.3,101.1 -22.3,455.7 -22.3,1063.6 0,330.4 11.2,552.1 34.1,665 17,81.1 41.7,135.8 74.1,163.4 32.3,27.7 74.6,41.2 127.6,41.2 57.6,0 100.5,-18.2 129.3,-55.3 48.2,-64.1 75.8,-163.4 82.3,-297.5l7.1 -740.8z" id="path3707"/>
  <path class="fil1" d="M11385.9 43992.6l554.4 -751.4 105.3 0 0 751.4 106.4 0 0 178.7 -106.4 0 0 261.6 -237 0 0 -261.6 -422.7 0 0 -178.7zm83.5 0l339.2 0 0 -460.4 -339.2 460.4z" id="path3709"/>
  <path class="fil1" d="M8963.1 32712.3l0 1910.2c0,143.5 6.4,235.2 18.8,275.2 12.9,39.4 39.4,71.7 79.3,97 40,25.3 104.7,38.2 192.9,38.2l53.5 0 0 63.5 -1230 0 0 -63.5 62.3 0c100,0 171.1,-11.8 213.5,-34.7 42.3,-22.9 71.1,-54.7 85.8,-94.6 15.3,-40 22.9,-134.1 22.9,-281.1l0 -1210.6c0,-108.2 -5.3,-175.8 -15.9,-202.2 -9.9,-27.1 -29.4,-50 -57.6,-69.4 -28.2,-18.8 -60.5,-28.2 -97,-28.2 -58.8,0 -129.9,18.2 -214,55.2l-30.6 -62.3 859 -392.7 57.1 0z" id="path3711"/>
  <path class="fil1" d="M11212.5 33928.7c0,232.9 -32.3,450.4 -98.2,652.7 -38.8,124 -91.1,225.7 -157.6,305.1 -65.8,78.8 -141.1,141.7 -224.6,188.1 -84,46.5 -175.2,70 -273.9,70 -112.3,0 -214.1,-28.8 -304.6,-85.8 -91.1,-57.6 -171.1,-140 -241.6,-246.4 -50.6,-78.2 -94.7,-182.2 -132.3,-312.2 -49.4,-175.8 -74.1,-356.9 -74.1,-543.8 0,-254 35.3,-487.4 106.4,-699.7 58.8,-175.8 147.6,-310.4 267.5,-403.9 119.4,-93.5 245.8,-140.5 378.7,-140.5 135.8,0 262.2,46.4 379.8,138.7 117.6,92.3 204,217 259.3,372.8 77,215.2 115.2,449.8 115.2,704.9zm-530.3 -3.5c0,-409.2 -2.4,-647.3 -7.1,-714.9 -11.2,-159.4 -38.8,-267.6 -82.3,-324 -28.8,-36.5 -75.3,-55.3 -139.9,-55.3 -49.4,0 -88.2,14.1 -117,41.8 -42.4,40 -71.2,111.1 -85.9,212.8 -15.3,101.1 -22.3,455.7 -22.3,1063.6 0,330.4 11.2,552.1 34.1,665 17,81.1 41.7,135.8 74.1,163.4 32.3,27.7 74.6,41.2 127.6,41.2 57.6,0 100.5,-18.2 129.3,-55.3 48.2,-64.1 75.8,-163.4 82.3,-297.5l7.1 -740.8z" id="path3713"/>
  <path class="fil1" d="M12170.2 32141.4l0 24.1c-104,26.4 -186.9,59.9 -249.9,101.7 -62.9,41.7 -112.8,92.3 -149.3,151.7 -36.4,59.4 -64.7,132.9 -84.7,221 25.3,-17 46.5,-28.8 62.9,-33.5 37.1,-11.7 74.7,-17.6 112.9,-17.6 87.1,0 160,31.7 218.2,95.2 58.2,63.5 87.6,150 87.6,259.9 0,77 -15.9,147.6 -47.7,211.7 -31.1,64.7 -76.4,114 -134,149.3 -58.2,34.7 -119.9,52.3 -186.4,52.3 -71.7,0 -138.2,-19.4 -198.7,-58.8 -61.2,-39.3 -108.2,-97 -142.9,-172.8 -34.1,-75.9 -51.1,-158.2 -51.1,-246.9 0,-131.2 31.7,-252.9 94.6,-365.8 62.9,-112.8 152.3,-202.8 267.5,-269.8 115.9,-67 249.3,-100.6 401,-101.7zm-495 567.9c-4.7,79.4 -7.1,137.6 -7.1,174.1 0,79.3 7.7,155.8 22.9,229.8 15.3,74.1 35.9,126.5 62.4,156.4 18.8,21.2 41.7,31.8 67,31.8 26.4,0 50,-15.3 71.1,-46.5 20.6,-30.5 30.6,-92.9 30.6,-186.9 0,-158.8 -18.8,-268.1 -57.6,-328.1 -24.7,-39.4 -57.6,-58.8 -100,-58.8 -22.9,0 -52.9,9.4 -89.3,28.2z" id="path3715"/>
  <path class="fil1" d="M8963.1 21512.3l0 1910.2c0,143.5 6.4,235.2 18.8,275.2 12.9,39.4 39.4,71.7 79.3,97 40,25.3 104.7,38.2 192.9,38.2l53.5 0 0 63.5 -1230 0 0 -63.5 62.3 0c100,0 171.1,-11.8 213.5,-34.7 42.3,-22.9 71.1,-54.7 85.8,-94.6 15.3,-40 22.9,-134.1 22.9,-281.1l0 -1210.6c0,-108.2 -5.3,-175.8 -15.9,-202.2 -9.9,-27.1 -29.4,-50 -57.6,-69.4 -28.2,-18.8 -60.5,-28.2 -97,-28.2 -58.8,0 -129.9,18.2 -214,55.2l-30.6 -62.3 859 -392.7 57.1 0z" id="path3717"/>
  <path class="fil1" d="M11212.5 22728.7c0,232.9 -32.3,450.4 -98.2,652.7 -38.8,124 -91.1,225.7 -157.6,305.1 -65.8,78.8 -141.1,141.7 -224.6,188.1 -84,46.5 -175.2,70 -273.9,70 -112.3,0 -214.1,-28.8 -304.6,-85.8 -91.1,-57.6 -171.1,-140 -241.6,-246.4 -50.6,-78.2 -94.7,-182.2 -132.3,-312.2 -49.4,-175.8 -74.1,-356.9 -74.1,-543.8 0,-254 35.3,-487.4 106.4,-699.7 58.8,-175.8 147.6,-310.4 267.5,-403.9 119.4,-93.5 245.8,-140.5 378.7,-140.5 135.8,0 262.2,46.4 379.8,138.7 117.6,92.3 204,217 259.3,372.8 77,215.2 115.2,449.8 115.2,704.9zm-530.3 -3.5c0,-409.2 -2.4,-647.3 -7.1,-714.9 -11.2,-159.4 -38.8,-267.6 -82.3,-324 -28.8,-36.5 -75.3,-55.3 -139.9,-55.3 -49.4,0 -88.2,14.1 -117,41.8 -42.4,40 -71.2,111.1 -85.9,212.8 -15.3,101.1 -22.3,455.7 -22.3,1063.6 0,330.4 11.2,552.1 34.1,665 17,81.1 41.7,135.8 74.1,163.4 32.3,27.7 74.6,41.2 127.6,41.2 57.6,0 100.5,-18.2 129.3,-55.3 48.2,-64.1 75.8,-163.4 82.3,-297.5l7.1 -740.8z" id="path3719"/>
  <path class="fil1" d="M11942.7 21473.5c82.3,59.9 139.3,116.4 171.1,168.1 31.7,52.3 48.2,111.7 48.2,178.7 0,94.1 -35.9,174.1 -106.4,239.3 -71.2,65.3 -167.6,97.6 -289.3,97.6 -115.2,0 -204.6,-28.2 -267.5,-85.2 -63.5,-57 -95.3,-126.4 -95.3,-208.7 0,-62.4 18.3,-117 54.7,-164.1 36.5,-47 97.6,-90.5 182.3,-129.3 -92.3,-70.6 -151.7,-128.2 -177.6,-172.9 -26.4,-45.2 -39.4,-97 -39.4,-156.4 0,-77.6 33.5,-146.4 99.4,-205.8 66.4,-59.3 157.6,-89.3 272.8,-89.3 111.1,0 197,26.4 256.9,78.8 60,52.3 90,115.8 90,189.3 0,54.7 -15.9,103.5 -48.2,145.8 -32.9,42.3 -82.9,80 -151.7,114.1zm-65.3 -44.1c21.2,-28.8 37.1,-60.6 47.6,-96.5 10,-35.2 15.3,-74.6 15.3,-117 0,-74.6 -15.8,-131.7 -48.2,-171.6 -24.1,-30 -57.6,-45.3 -99.9,-45.3 -38.2,0 -71.2,13.5 -98.2,41.7 -27.1,27.7 -40.6,62.3 -40.6,103.5 0,42.3 15.3,85.8 45.3,130.5 30,45.3 89.9,97 178.7,154.7zm-172.2 181.6c-17.7,16.5 -30.6,31.2 -37.7,44.1 -11.7,20 -21.7,49.4 -31.1,87.6 -9.4,38.8 -13.6,78.8 -13.6,120.6 0,54.1 6.5,99.3 20.6,135.8 13.5,36.4 33.5,62.9 58.8,78.8 25.3,16.4 51.8,24.1 78.8,24.1 41.7,0 77,-15.3 105.8,-45.9 28.8,-30.6 42.9,-72.9 42.9,-126.4 0,-111.1 -74.6,-217.5 -224.5,-318.7z" id="path3721"/>
  <path class="fil1" d="M8463.1 10712.3l0 1910.2c0,143.5 6.4,235.2 18.8,275.2 12.9,39.4 39.4,71.7 79.3,97 40,25.3 104.7,38.2 192.9,38.2l53.5 0 0 63.5 -1230 0 0 -63.5 62.3 0c100,0 171.1,-11.8 213.5,-34.7 42.3,-22.9 71.1,-54.7 85.8,-94.6 15.3,-40 22.9,-134.1 22.9,-281.1l0 -1210.6c0,-108.2 -5.3,-175.8 -15.9,-202.2 -9.9,-27.1 -29.4,-50 -57.6,-69.4 -28.2,-18.8 -60.5,-28.2 -97,-28.2 -58.8,0 -129.9,18.2 -214,55.2l-30.6 -62.3 859 -392.7 57.1 0z" id="path3723"/>
  <path class="fil1" d="M10712.5 11928.7c0,232.9 -32.3,450.4 -98.2,652.7 -38.8,124 -91.1,225.7 -157.6,305.1 -65.8,78.8 -141.1,141.7 -224.6,188.1 -84,46.5 -175.2,70 -273.9,70 -112.3,0 -214.1,-28.8 -304.6,-85.8 -91.1,-57.6 -171.1,-140 -241.6,-246.4 -50.6,-78.2 -94.7,-182.2 -132.3,-312.2 -49.4,-175.8 -74.1,-356.9 -74.1,-543.8 0,-254 35.3,-487.4 106.4,-699.7 58.8,-175.8 147.6,-310.4 267.5,-403.9 119.4,-93.5 245.8,-140.5 378.7,-140.5 135.8,0 262.2,46.4 379.8,138.7 117.6,92.3 204,217 259.3,372.8 77,215.2 115.2,449.8 115.2,704.9zm-530.3 -3.5c0,-409.2 -2.4,-647.3 -7.1,-714.9 -11.2,-159.4 -38.8,-267.6 -82.3,-324 -28.8,-36.5 -75.3,-55.3 -139.9,-55.3 -49.4,0 -88.2,14.1 -117,41.8 -42.4,40 -71.2,111.1 -85.9,212.8 -15.3,101.1 -22.3,455.7 -22.3,1063.6 0,330.4 11.2,552.1 34.1,665 17,81.1 41.7,135.8 74.1,163.4 32.3,27.7 74.6,41.2 127.6,41.2 57.6,0 100.5,-18.2 129.3,-55.3 48.2,-64.1 75.8,-163.4 82.3,-297.5l7.1 -740.8z" id="path3725"/>
  <path class="fil1" d="M11416.2 10141.4l0 954.8c0,71.7 3,117.6 9.4,137.6 6.5,19.4 19.4,35.8 40,48.8 20,12.3 51.8,18.8 96.4,18.8l26.5 0 0 31.7 -615 0 0 -31.7 31.2 0c49.9,0 85.2,-5.9 107,-17.6 21.1,-11.2 35.2,-27.1 42.9,-47.1 7,-20 11.2,-67 11.2,-140.5l0 -605.6c0,-53.5 -3,-87.6 -7.7,-101.1 -5.3,-13.5 -15.3,-24.7 -28.8,-34.1 -14.1,-9.4 -30.6,-14.7 -48.8,-14.7 -29.4,0 -65.3,9.4 -107,27.6l-15.3 -30.6 429.8 -196.3 28.2 0z" id="path3727"/>
  <path class="fil1" d="M12541 10749.3c0,116.4 -16.5,225.2 -48.8,326.3 -20,61.8 -45.9,112.9 -78.8,152.3 -33.5,40 -70.6,71.1 -112.9,94.7 -41.8,22.9 -87,34.6 -136.4,34.6 -56.5,0 -107.6,-14.1 -152.9,-42.9 -45.3,-28.8 -85.2,-69.9 -120.5,-123.4 -25.3,-38.9 -47.1,-90.6 -66.5,-155.9 -24.7,-87.6 -37,-178.7 -37,-272.2 0,-127 18.2,-243.4 53.5,-349.2 29.4,-88.2 74.1,-155.2 133.5,-202.3 59.9,-47 122.8,-69.9 189.9,-69.9 67.6,0 130.5,22.9 189.9,69.3 58.8,45.9 101.7,108.2 129.3,186.4 38.2,107 57.7,224.6 57.7,352.2zm-265.2 -1.8c0,-204.6 -1.2,-323.3 -3.5,-357.4 -5.9,-80 -19.4,-134.1 -41.2,-161.7 -14.7,-18.8 -37.6,-27.7 -70,-27.7 -24.7,0 -44.1,6.5 -58.2,20.6 -21.7,20 -35.8,55.3 -43.5,106.4 -7,50.6 -11.2,228.2 -11.2,531.6 0,165.8 5.9,276.3 17.7,332.7 8.2,40.6 20.6,67.6 37,81.8 15.9,13.5 37.1,20.5 63.5,20.5 28.8,0 50,-9.4 64.7,-27.6 24.1,-31.7 37.6,-81.7 41.2,-148.8l3.5 -370.4z" id="path3729"/>
  <path class="fil1" d="M39585.7 68354.9l0 1910.2c0,143.5 6.4,235.2 18.8,275.2 12.9,39.4 39.4,71.7 79.3,97 40,25.3 104.7,38.2 192.9,38.2l53.5 0 0 63.5 -1230 0 0 -63.5 62.3 0c100,0 171.1,-11.8 213.5,-34.7 42.3,-22.9 71.1,-54.7 85.8,-94.6 15.3,-40 22.9,-134.1 22.9,-281.1l0 -1210.6c0,-108.2 -5.3,-175.8 -15.9,-202.2 -9.9,-27.1 -29.4,-50 -57.6,-69.4 -28.2,-18.8 -60.5,-28.2 -97,-28.2 -58.8,0 -129.9,18.2 -214,55.2l-30.6 -62.3 859 -392.7 57.1 0z" id="path3731"/>
  <path class="fil1" d="M41835.1 69571.3c0,232.9 -32.3,450.4 -98.2,652.7 -38.8,124 -91.1,225.7 -157.6,305.1 -65.8,78.8 -141.1,141.7 -224.6,188.1 -84,46.5 -175.2,70 -273.9,70 -112.3,0 -214.1,-28.8 -304.6,-85.8 -91.1,-57.6 -171.1,-140 -241.6,-246.4 -50.6,-78.2 -94.7,-182.2 -132.3,-312.2 -49.4,-175.8 -74.1,-356.9 -74.1,-543.8 0,-254 35.3,-487.4 106.4,-699.7 58.8,-175.8 147.6,-310.4 267.5,-403.9 119.4,-93.5 245.8,-140.5 378.7,-140.5 135.8,0 262.2,46.4 379.8,138.7 117.6,92.3 204,217 259.3,372.8 77,215.2 115.2,449.8 115.2,704.9zm-530.3 -3.5c0,-409.2 -2.4,-647.3 -7.1,-714.9 -11.2,-159.4 -38.8,-267.6 -82.3,-324 -28.8,-36.5 -75.3,-55.3 -139.9,-55.3 -49.4,0 -88.2,14.1 -117,41.8 -42.4,40 -71.2,111.1 -85.9,212.8 -15.3,101.1 -22.3,455.7 -22.3,1063.6 0,330.4 11.2,552.1 34.1,665 17,81.1 41.7,135.8 74.1,163.4 32.3,27.7 74.6,41.2 127.6,41.2 57.6,0 100.5,-18.2 129.3,-55.3 48.2,-64.1 75.8,-163.4 82.3,-297.5l7.1 -740.8z" id="path3733"/>
  <path class="fil1" d="M62885.6 68354.9l0 1910.2c0,143.5 6.4,235.2 18.8,275.2 12.9,39.4 39.4,71.7 79.3,97 40,25.3 104.7,38.2 192.9,38.2l53.5 0 0 63.5 -1230 0 0 -63.5 62.3 0c100,0 171.1,-11.8 213.5,-34.7 42.3,-22.9 71.1,-54.7 85.8,-94.6 15.3,-40 22.9,-134.1 22.9,-281.1l0 -1210.6c0,-108.2 -5.3,-175.8 -15.9,-202.2 -9.9,-27.1 -29.4,-50 -57.6,-69.4 -28.2,-18.8 -60.5,-28.2 -97,-28.2 -58.8,0 -129.9,18.2 -214,55.2l-30.6 -62.3 859 -392.7 57.1 0z" id="path3735"/>
  <path class="fil1" d="M65135 69571.3c0,232.9 -32.3,450.4 -98.2,652.7 -38.8,124 -91.1,225.7 -157.6,305.1 -65.8,78.8 -141.1,141.7 -224.6,188.1 -84,46.5 -175.2,70 -273.9,70 -112.3,0 -214.1,-28.8 -304.6,-85.8 -91.1,-57.6 -171.1,-140 -241.6,-246.4 -50.6,-78.2 -94.7,-182.2 -132.3,-312.2 -49.4,-175.8 -74.1,-356.9 -74.1,-543.8 0,-254 35.3,-487.4 106.4,-699.7 58.8,-175.8 147.6,-310.4 267.5,-403.9 119.4,-93.5 245.8,-140.5 378.7,-140.5 135.8,0 262.2,46.4 379.8,138.7 117.6,92.3 204,217 259.3,372.8 77,215.2 115.2,449.8 115.2,704.9zm-530.3 -3.5c0,-409.2 -2.4,-647.3 -7.1,-714.9 -11.2,-159.4 -38.8,-267.6 -82.3,-324 -28.8,-36.5 -75.3,-55.3 -139.9,-55.3 -49.4,0 -88.2,14.1 -117,41.8 -42.4,40 -71.2,111.1 -85.9,212.8 -15.3,101.1 -22.3,455.7 -22.3,1063.6 0,330.4 11.2,552.1 34.1,665 17,81.1 41.7,135.8 74.1,163.4 32.3,27.7 74.6,41.2 127.6,41.2 57.6,0 100.5,-18.2 129.3,-55.3 48.2,-64.1 75.8,-163.4 82.3,-297.5l7.1 -740.8z" id="path3737"/>
  <path class="fil1" d="M66898.8 69571.3c0,232.9 -32.3,450.4 -98.2,652.7 -38.8,124 -91.1,225.7 -157.6,305.1 -65.8,78.8 -141.1,141.7 -224.6,188.1 -84,46.5 -175.2,70 -273.9,70 -112.3,0 -214.1,-28.8 -304.6,-85.8 -91.1,-57.6 -171.1,-140 -241.6,-246.4 -50.6,-78.2 -94.7,-182.2 -132.3,-312.2 -49.4,-175.8 -74.1,-356.9 -74.1,-543.8 0,-254 35.3,-487.4 106.4,-699.7 58.8,-175.8 147.6,-310.4 267.5,-403.9 119.4,-93.5 245.8,-140.5 378.7,-140.5 135.8,0 262.2,46.4 379.8,138.7 117.6,92.3 204,217 259.3,372.8 77,215.2 115.2,449.8 115.2,704.9zm-530.3 -3.5c0,-409.2 -2.4,-647.3 -7.1,-714.9 -11.2,-159.4 -38.8,-267.6 -82.3,-324 -28.8,-36.5 -75.3,-55.3 -139.9,-55.3 -49.4,0 -88.2,14.1 -117,41.8 -42.4,40 -71.2,111.1 -85.9,212.8 -15.3,101.1 -22.3,455.7 -22.3,1063.6 0,330.4 11.2,552.1 34.1,665 17,81.1 41.7,135.8 74.1,163.4 32.3,27.7 74.6,41.2 127.6,41.2 57.6,0 100.5,-18.2 129.3,-55.3 48.2,-64.1 75.8,-163.4 82.3,-297.5l7.1 -740.8z" id="path3739"/>
  <path class="fil1" d="M68662.6 69571.3c0,232.9 -32.3,450.4 -98.2,652.7 -38.8,124 -91.1,225.7 -157.6,305.1 -65.8,78.8 -141.1,141.7 -224.6,188.1 -84,46.5 -175.2,70 -273.9,70 -112.3,0 -214.1,-28.8 -304.6,-85.8 -91.1,-57.6 -171.1,-140 -241.6,-246.4 -50.6,-78.2 -94.7,-182.2 -132.3,-312.2 -49.4,-175.8 -74.1,-356.9 -74.1,-543.8 0,-254 35.3,-487.4 106.4,-699.7 58.8,-175.8 147.6,-310.4 267.5,-403.9 119.4,-93.5 245.8,-140.5 378.7,-140.5 135.8,0 262.2,46.4 379.8,138.7 117.6,92.3 204,217 259.3,372.8 77,215.2 115.2,449.8 115.2,704.9zm-530.3 -3.5c0,-409.2 -2.4,-647.3 -7.1,-714.9 -11.2,-159.4 -38.8,-267.6 -82.3,-324 -28.8,-36.5 -75.3,-55.3 -139.9,-55.3 -49.4,0 -88.2,14.1 -117,41.8 -42.4,40 -71.2,111.1 -85.9,212.8 -15.3,101.1 -22.3,455.7 -22.3,1063.6 0,330.4 11.2,552.1 34.1,665 17,81.1 41.7,135.8 74.1,163.4 32.3,27.7 74.6,41.2 127.6,41.2 57.6,0 100.5,-18.2 129.3,-55.3 48.2,-64.1 75.8,-163.4 82.3,-297.5l7.1 -740.8z" id="path3741"/>
  <path class="fil1" d="M91085.5 68354.9l0 1910.2c0,143.5 6.4,235.2 18.8,275.2 12.9,39.4 39.4,71.7 79.3,97 40,25.3 104.7,38.2 192.9,38.2l53.5 0 0 63.5 -1230 0 0 -63.5 62.3 0c100,0 171.1,-11.8 213.5,-34.7 42.3,-22.9 71.1,-54.7 85.8,-94.6 15.3,-40 22.9,-134.1 22.9,-281.1l0 -1210.6c0,-108.2 -5.3,-175.8 -15.9,-202.2 -9.9,-27.1 -29.4,-50 -57.6,-69.4 -28.2,-18.8 -60.5,-28.2 -97,-28.2 -58.8,0 -129.9,18.2 -214,55.2l-30.6 -62.3 859 -392.7 57.1 0z" id="path3743"/>
  <path class="fil1" d="M93334.9 69571.3c0,232.9 -32.3,450.4 -98.2,652.7 -38.8,124 -91.1,225.7 -157.6,305.1 -65.8,78.8 -141.1,141.7 -224.6,188.1 -84,46.5 -175.2,70 -273.9,70 -112.3,0 -214.1,-28.8 -304.6,-85.8 -91.1,-57.6 -171.1,-140 -241.6,-246.4 -50.6,-78.2 -94.7,-182.2 -132.3,-312.2 -49.4,-175.8 -74.1,-356.9 -74.1,-543.8 0,-254 35.3,-487.4 106.4,-699.7 58.8,-175.8 147.6,-310.4 267.5,-403.9 119.4,-93.5 245.8,-140.5 378.7,-140.5 135.8,0 262.2,46.4 379.8,138.7 117.6,92.3 204,217 259.3,372.8 77,215.2 115.2,449.8 115.2,704.9zm-530.3 -3.5c0,-409.2 -2.4,-647.3 -7.1,-714.9 -11.2,-159.4 -38.8,-267.6 -82.3,-324 -28.8,-36.5 -75.3,-55.3 -139.9,-55.3 -49.4,0 -88.2,14.1 -117,41.8 -42.4,40 -71.2,111.1 -85.9,212.8 -15.3,101.1 -22.3,455.7 -22.3,1063.6 0,330.4 11.2,552.1 34.1,665 17,81.1 41.7,135.8 74.1,163.4 32.3,27.7 74.6,41.2 127.6,41.2 57.6,0 100.5,-18.2 129.3,-55.3 48.2,-64.1 75.8,-163.4 82.3,-297.5l7.1 -740.8z" id="path3745"/>
  <path class="fil1" d="M93732.9 67808.1l546.8 0 -87 222.2 -459.8 0 -44.1 115.8c198.1,7.7 351,57.1 457.4,148.2 88.2,75.3 131.7,168.7 131.7,281 0,71.8 -20,141.7 -61.1,210.5 -40.6,68.8 -98.2,121.7 -172.3,158.8 -74.1,37 -155.2,55.2 -243.4,55.2 -95.3,0 -168.7,-17.6 -219.9,-53.5 -35.3,-25.2 -53.5,-54.1 -53.5,-85.8 0,-24.7 9.4,-46.4 28.2,-65.9 18.8,-18.8 40.6,-28.2 65.3,-28.2 22.3,0 44.7,4.7 67.6,13.6 22.9,9.4 62.3,33.5 118.2,72.9 35.3,24.1 65.2,40.5 90.5,49.3 17.7,7.1 37.6,10.6 60,10.6 47,0 87.6,-17 120.5,-51.7 32.9,-34.1 49.4,-75.9 49.4,-124.1 0,-101.1 -50.6,-182.8 -151.7,-246.3 -101.1,-62.9 -228.7,-94.7 -382.2,-94.7 -15.8,0 -38.8,0.6 -69.9,1.2l209.3 -589.1z" id="path3747"/>
  <path class="fil1" d="M14471.3 69571.3c0,232.9 -32.3,450.4 -98.2,652.7 -38.8,124 -91.1,225.7 -157.6,305.1 -65.8,78.8 -141.1,141.7 -224.6,188.1 -84,46.5 -175.2,70 -273.9,70 -112.3,0 -214.1,-28.8 -304.6,-85.8 -91.1,-57.6 -171.1,-140 -241.6,-246.4 -50.6,-78.2 -94.7,-182.2 -132.3,-312.2 -49.4,-175.8 -74.1,-356.9 -74.1,-543.8 0,-254 35.3,-487.4 106.4,-699.7 58.8,-175.8 147.6,-310.4 267.5,-403.9 119.4,-93.5 245.8,-140.5 378.7,-140.5 135.8,0 262.2,46.4 379.8,138.7 117.6,92.3 204,217 259.3,372.8 77,215.2 115.2,449.8 115.2,704.9zm-530.3 -3.5c0,-409.2 -2.4,-647.3 -7.1,-714.9 -11.2,-159.4 -38.8,-267.6 -82.3,-324 -28.8,-36.5 -75.3,-55.3 -139.9,-55.3 -49.4,0 -88.2,14.1 -117,41.8 -42.4,40 -71.2,111.1 -85.9,212.8 -15.3,101.1 -22.3,455.7 -22.3,1063.6 0,330.4 11.2,552.1 34.1,665 17,81.1 41.7,135.8 74.1,163.4 32.3,27.7 74.6,41.2 127.6,41.2 57.6,0 100.5,-18.2 129.3,-55.3 48.2,-64.1 75.8,-163.4 82.3,-297.5l7.1 -740.8z" id="path3749"/>
  <path class="fil1" d="M14776.4 71357.5l0 -75.8c132.9,-57.6 229.9,-131.7 289.9,-223.4 60.5,-91.2 90.5,-184.7 90.5,-279.9 0,-19.4 -4.1,-34.1 -11.8,-44.7 -8.2,-8.8 -16.4,-13.5 -24.1,-13.5 -7,0 -17.6,4.1 -31.1,11.7 -33.5,19.4 -74.7,29.4 -124.1,29.4 -67.6,0 -126.4,-26.4 -176.4,-79.3 -49.9,-52.9 -75.2,-114.7 -75.2,-185.8 0,-75.9 28.8,-142.3 86.4,-199.9 57.6,-57.6 127,-85.9 208.1,-85.9 98.8,0 183.5,38.2 253.4,114.1 70,76.4 105.3,181.7 105.3,314.5 0,164.1 -50,309.9 -149.4,437.5 -99.3,127.6 -246.3,221.1 -441.5,281z" id="path3751"/>
  <path class="fil1" d="M16631.4 68354.9l0 1910.2c0,143.5 6.4,235.2 18.8,275.2 12.9,39.4 39.4,71.7 79.3,97 40,25.3 104.7,38.2 192.9,38.2l53.5 0 0 63.5 -1230 0 0 -63.5 62.3 0c100,0 171.1,-11.8 213.5,-34.7 42.3,-22.9 71.1,-54.7 85.8,-94.6 15.3,-40 22.9,-134.1 22.9,-281.1l0 -1210.6c0,-108.2 -5.3,-175.8 -15.9,-202.2 -9.9,-27.1 -29.4,-50 -57.6,-69.4 -28.2,-18.8 -60.5,-28.2 -97,-28.2 -58.8,0 -129.9,18.2 -214,55.2l-30.6 -62.3 859 -392.7 57.1 0z" id="path3753"/>
  <rect class="fil0 str3" x="19682.6" y="37959.8" width="22477" height="21812" id="rect3755"/>
 <text xml:space="preserve" style="font-size:3386.66674805px;font-style:normal;font-weight:normal;line-height:125%;letter-spacing:0px;word-spacing:0px;fill:#000000;fill-opacity:1;stroke:none;font-family:Sans" x="2955.7976" y="6851.1084" id="text3761" sodipodi:linespacing="125%"><tspan sodipodi:role="line" x="2955.7976" y="6851.1084" id="tspan3773">Activity per unit of spent reactor fuel</tspan></text>
</g>
</svg>